<?xml version="1.0" encoding="iso-8859-1"?>
<!-- Generator: Adobe Illustrator 29.5.0, SVG Export Plug-In . SVG Version: 9.03 Build 0)  -->
<svg version="1.1" id="Layer_1" xmlns="http://www.w3.org/2000/svg" xmlns:xlink="http://www.w3.org/1999/xlink" x="0px" y="0px"
	 viewBox="0 0 1193.166 228.9689" enable-background="new 0 0 1193.166 228.9689" xml:space="preserve">
<g>
	<g>
		<path fill="#FFFFFF" d="M281.0131,209.7308l-17.2241-41.3711c-0.4658-1.1465-1.272-1.6982-2.4229-1.6982h-1.252
			c-1.1523,0-1.958,0.5518-2.4233,1.6982l-17.1924,41.3711c-0.5894,1.499,0.064,2.543,1.6167,2.543h0.8296
			c1.1514,0,1.9893-0.584,2.4219-1.6973l3.3896-8.415h23.9892l3.397,8.415c0.4648,1.1133,1.2715,1.6973,2.4224,1.6973h0.8936
			c1.521,0,2.1421-1.0439,1.5527-2.543H281.0131z M250.4921,197.85l10.2446-25.4297l10.2656,25.4297H250.4921z"/>
		<path fill="#FFFFFF" d="M303.1713,175.9447l0.0005-0.002c-5.9849-0.3916-9.0366,3.1084-10.2686,6.8926v-4.4775
			c0-1.3691-0.7461-2.1201-2.082-2.1201h-0.5522c-1.3354,0-2.082,0.7842-2.082,2.1865v31.6641c0,1.4023,0.7466,2.1855,2.082,2.1855
			h0.5522c1.3359,0,2.082-0.7832,2.082-2.1855v-16.4307c0-8.3184,2.8667-13.417,9.7847-12.9629
			c1.3706,0.04,2.1743-0.5225,2.3257-1.8965l0.0601-0.4453C305.2582,176.9505,304.5746,175.9818,303.1713,175.9447z"/>
		<path fill="#FFFFFF" d="M328.0936,208.5697c-4.7329,0.0498-8.6084-0.7578-8.6084-11.1934v-17.1152h8.6685
			c1.3354,0,2.082-0.7188,2.082-2.0273c0-1.3018-0.71-1.9932-2.082-1.9932h-8.6685v-5.3574c0-1.5332-0.8599-2.2217-2.2983-1.8955
			l-0.6167,0.1299c-1.25,0.2578-1.833,1.0449-1.833,2.3506v4.7725h-3.3213c-1.1748,0-1.8242,0.6475-1.8242,1.9941
			s0.7456,2.0273,2.0815,2.0273h3.064v17.3584c0,11.084,3.603,15.1309,12.0332,15.1309l-0.002-0.002
			c0.4844,0,1.084-0.0098,1.7393-0.0918c1.5103-0.1777,2.0488-0.9785,1.8799-2.3857
			C330.2421,209.0404,329.4008,208.5609,328.0936,208.5697z"/>
		<path fill="#FFFFFF" d="M395.7914,187.7962h-15.7949c-1.3037,0-2.0815,0.75-2.0815,2.1191v0.208
			c0,1.4023,0.7461,2.1865,2.0815,2.1865h12.874c-0.332,10.3086-5.9468,15.9199-15.0952,15.9199
			c-9.4795,0-15.481-7.252-15.481-18.8535c0-11.3545,6.2378-18.8252,15.5645-18.8252c5.4209,0,9.3345,1.8867,12.0459,5.7881
			c0.7539,1.0703,1.4937,1.4648,2.6997,1.1533l0.6519-0.1641c1.4277-0.3525,1.9736-1.4951,1.1885-2.8311
			c-3.394-5.7314-9.1855-8.5273-16.6519-8.5273c-12.0957,0-20.3467,9.4502-20.3467,23.374c0,14.2383,7.8911,23.4375,20.1665,23.4375
			l0.001-0.0029c12.4834,0,20.2593-8.4219,20.2593-22.1113v-1.0566C397.8729,188.3773,397.1273,187.7962,395.7914,187.7962z"/>
		<path fill="#FFFFFF" d="M410.6693,164.5199h-0.585c-1.3354,0-2.082,0.7842-2.082,2.1865v43.3828
			c0,1.4023,0.7466,2.1855,2.082,2.1855h0.585c1.3359,0,2.082-0.7832,2.082-2.1855v-43.3828
			C412.7513,165.3041,412.0052,164.5199,410.6693,164.5199z"/>
		<path fill="#FFFFFF" d="M454.3519,176.2377h-0.5527c-1.3354,0-2.082,0.7842-2.082,2.1865v6.125
			c-2.1733-5.999-7.335-9.0049-13.1797-9.0049c-8.4639,0-16.1357,6.0381-16.1357,18.7119c0,12.7666,7.7046,18.8369,16.2241,18.8369
			v0.001c5.7852,0,10.9775-3.0391,13.0913-8.9697v5.9014c0,1.4023,0.7466,2.1855,2.082,2.1855h0.5527
			c1.3359,0,2.0815-0.7832,2.0815-2.1855v-31.6016C456.4335,177.0218,455.6879,176.2377,454.3519,176.2377z M439.5277,208.68
			c-7.5039,0-12.4077-5.46-12.4077-14.4238c0-8.8721,4.9038-14.332,12.2876-14.332c7.4155,0,12.4067,5.5234,12.4067,14.332
			C451.8143,203.1576,446.8832,208.68,439.5277,208.68z"/>
		<path fill="#FFFFFF" d="M472.0834,185.4808c0-3.5029,3.5513-5.5938,8.9023-5.5938c3.5552,0,6.6909,1.4277,9.0352,3.5674
			c1.0376,0.7715,1.6763,1.1641,2.7959,0.7148l0.4321-0.1885c1.293-0.5332,1.6099-1.7021,0.6592-2.7969
			c-2.9077-3.4238-8.0352-5.5752-12.9814-5.5752c-7.5957,0-13.498,3.8574-13.498,10.0508c0,13.751,23.6714,6.9375,23.6714,16.4209
			c0,3.9785-3.6816,6.4131-9.6963,6.4131c-4.3462,0-8.3145-1.5557-10.8506-4.6299c-1.0996-1.1133-1.8076-1.1953-2.7622-0.8262
			l-0.4614,0.1592c-1.353,0.4834-1.7334,1.6328-0.9072,2.8008c2.9077,4.208,8.8096,6.9072,14.9834,6.9072
			c8.5542,0,14.4463-4.3838,14.4463-10.9258C495.8519,187.9066,472.0834,194.9144,472.0834,185.4808z"/>
		<path fill="#FFFFFF" d="M508.8026,185.4808c0-3.5029,3.5513-5.5938,8.9023-5.5938c3.5552,0,6.6909,1.4277,9.0352,3.5674
			c1.0376,0.7715,1.6763,1.1641,2.7959,0.7148l0.4321-0.1885c1.293-0.5332,1.6099-1.7021,0.6592-2.7969
			c-2.9077-3.4238-8.0352-5.5752-12.9814-5.5752c-7.5957,0-13.498,3.8574-13.498,10.0508c0,13.751,23.6714,6.9375,23.6714,16.4209
			c0,3.9785-3.6816,6.4131-9.6963,6.4131c-4.3462,0-8.3145-1.5557-10.8506-4.6299c-1.0996-1.1133-1.8076-1.1953-2.7622-0.8262
			l-0.4614,0.1592c-1.353,0.4834-1.7334,1.6328-0.9072,2.8008c2.9077,4.208,8.8096,6.9072,14.9834,6.9072
			c8.5542,0,14.4463-4.3838,14.4463-10.9258C532.5712,187.9066,508.8026,194.9144,508.8026,185.4808z"/>
		<path fill="#FFFFFF" d="M586.6566,166.6634h-26.0869c-1.3359,0-2.0815,0.7832-2.0815,2.1865v0.3447
			c0,1.4023,0.7456,2.1855,2.0815,2.1855h10.6494v38.709c0,1.4023,0.7461,2.1855,2.082,2.1855h0.0015h0.6821
			c1.3359,0,2.082-0.7832,2.082-2.1855v-38.709h10.5898c1.3354,0,2.0815-0.7832,2.0815-2.1855V168.85
			C588.7382,167.4466,587.9921,166.6634,586.6566,166.6634z"/>
		<path fill="#FFFFFF" d="M607.9066,175.9447l0.0005-0.002c-5.9849-0.3916-9.0366,3.1084-10.2686,6.8926v-4.4775
			c0-1.3691-0.7461-2.1201-2.082-2.1201h-0.5522c-1.3354,0-2.082,0.7842-2.082,2.1865v31.6641c0,1.4023,0.7466,2.1855,2.082,2.1855
			h0.5522c1.3359,0,2.082-0.7832,2.082-2.1855v-16.4307c0-8.3184,2.8667-13.417,9.7847-12.9629
			c1.3706,0.04,2.1743-0.5225,2.3257-1.8965l0.0601-0.4453C609.9935,176.9505,609.3099,175.9818,607.9066,175.9447z"/>
		<path fill="#FFFFFF" d="M645.8685,176.2377h-0.5527c-1.3354,0-2.082,0.7842-2.082,2.1865v6.125
			c-2.1733-5.999-7.335-9.0049-13.1797-9.0049c-8.4639,0-16.1357,6.0381-16.1357,18.7119c0,12.7666,7.7046,18.8369,16.2241,18.8369
			v0.001c5.7852,0,10.9775-3.0391,13.0913-8.9697v5.9014c0,1.4023,0.7466,2.1855,2.082,2.1855h0.5527
			c1.3359,0,2.0815-0.7832,2.0815-2.1855v-31.6016C647.9501,177.0218,647.2045,176.2377,645.8685,176.2377z M631.0443,208.68
			c-7.5039,0-12.4077-5.46-12.4077-14.4238c0-8.8721,4.9038-14.332,12.2876-14.332c7.4155,0,12.4067,5.5234,12.4067,14.332
			C643.3309,203.1576,638.3998,208.68,631.0443,208.68z"/>
		<path fill="#FFFFFF" d="M675.6552,175.638l0.001-0.001c-6.2251,0-10.1963,3.5918-11.7188,8.3447v-5.5586
			c0-1.4023-0.7461-2.1855-2.082-2.1855h-0.5522c-1.3354,0-2.082,0.7832-2.082,2.1855v31.665c0,1.4023,0.7466,2.1855,2.082,2.1855
			h0.5522c1.3359,0,2.082-0.7832,2.082-2.1855v-15.7246c0-9.0479,3.1123-14.2783,10.5923-14.2783
			c7.3877,0,10.7124,4.2998,10.7124,13.1973v16.8057c0,1.4023,0.7461,2.1855,2.082,2.1855h0.5522
			c1.3354,0,2.082-0.7832,2.082-2.1855v-17.1104C689.9584,181.5746,685.3573,175.638,675.6552,175.638z"/>
		<path fill="#FFFFFF" d="M704.3392,185.4808c0-3.5029,3.5513-5.5938,8.9023-5.5938c3.5552,0,6.6909,1.4277,9.0352,3.5674
			c1.0376,0.7715,1.6763,1.1641,2.7959,0.7148l0.4321-0.1885c1.293-0.5332,1.6099-1.7021,0.6592-2.7969
			c-2.9077-3.4238-8.0352-5.5752-12.9814-5.5752c-7.5957,0-13.498,3.8574-13.498,10.0508c0,13.751,23.6714,6.9375,23.6714,16.4209
			c0,3.9785-3.6816,6.4131-9.6963,6.4131c-4.3462,0-8.3145-1.5557-10.8506-4.6299c-1.0996-1.1133-1.8076-1.1953-2.7622-0.8262
			l-0.4614,0.1592c-1.353,0.4834-1.7334,1.6328-0.9072,2.8008c2.9077,4.208,8.8096,6.9072,14.9834,6.9072
			c8.5542,0,14.4463-4.3838,14.4463-10.9258C728.1078,187.9066,704.3392,194.9144,704.3392,185.4808z"/>
		<path fill="#FFFFFF" d="M752.6859,163.7894c-1.0703-0.1387-2.2334-0.2129-3.2769-0.2129c-7.3354,0-11.0215,3.7012-11.0215,11.1006
			v1.5645h-2.7402c-1.3354,0-2.0811,0.6826-2.0811,1.9834c0,1.3311,0.7231,2.0391,2.0815,2.0391h2.7402v29.8281
			c0,1.4023,0.7466,2.1855,2.082,2.1855l0.001-0.0029h0.585c1.3354,0,2.082-0.7832,2.082-2.1855v-29.8281h8.0493
			c1.3613,0,2.082-0.7432,2.082-2.0391c0-1.3008-0.7461-1.9824-2.082-1.9824h-8.0493v-1.4639c0-4.7168,2.3223-7.0254,6.9795-7.0254
			c0.7788,0,1.4062,0.0498,2.1431,0.1221c1.3657,0.1143,1.9268-0.4316,2.1709-1.8438
			C754.6757,164.7611,754.1254,163.9584,752.6859,163.7894z"/>
		<path fill="#FFFFFF" d="M775.2826,175.5433c-8.5928,0-17.0049,5.7334-17.0049,18.7129c0,13.1045,8.4121,18.8379,17.0928,18.8379
			c8.5645,0,17.0044-5.7334,17.0044-18.8379C792.3749,181.2767,783.8749,175.5433,775.2826,175.5433z M775.37,208.681
			c-7.5036-0.0002-12.375-5.4601-12.375-14.4248c0-8.8711,4.8716-14.3311,12.2871-14.3311s12.374,5.5225,12.374,14.3311
			C787.6561,203.1584,782.7579,208.6808,775.37,208.681z"/>
		<path fill="#FFFFFF" d="M817.0028,175.9447l0.0005-0.002c-5.9849-0.3916-9.0366,3.1084-10.2686,6.8926v-4.4775
			c0-1.3691-0.7461-2.1201-2.082-2.1201h-0.5522c-1.3354,0-2.082,0.7842-2.082,2.1865v31.6641c0,1.4023,0.7466,2.1855,2.082,2.1855
			h0.5522c1.3359,0,2.082-0.7832,2.082-2.1855v-16.4307c0-8.3184,2.8667-13.417,9.7847-12.9629
			c1.3706,0.04,2.1743-0.5225,2.3262-1.8965l0.0596-0.4453C819.0897,176.9505,818.4061,175.9818,817.0028,175.9447z"/>
		<path fill="#FFFFFF" d="M865.6063,175.5443l0.0029-0.001c-6.6694,0-11.0625,3.752-12.5986,9.5947
			c-1.7197-6.5625-4.7349-9.501-10.9941-9.501c-5.6621,0-9.6357,3.7402-10.8003,8.5332v-5.7471c0-1.4023-0.7466-2.1855-2.082-2.1855
			h-0.5527c-1.3354,0-2.0815,0.7832-2.0815,2.1855v31.665c0,1.4023,0.7461,2.1855,2.0815,2.1855h0.5527
			c1.3354,0,2.082-0.7832,2.082-2.1855v-14.5459c0-10.3701,2.8257-15.458,9.6733-15.458c6.6914,0,8.7593,4.4824,8.7593,14.8369
			v15.167c0,1.4023,0.7461,2.1855,2.0815,2.1855h0.5527c1.3359,0,2.082-0.7832,2.082-2.1855v-15.2676
			c0-10.2021,2.7646-14.8281,9.6445-14.8281c6.7563,0,9.23,4.6172,9.23,14.8369v15.2588c0,1.4023,0.7466,2.1855,2.082,2.1855h0.5522
			c1.3359,0,2.082-0.7832,2.082-2.1855v-15.5625C877.9559,181.6341,874.6063,175.5443,865.6063,175.5443z"/>
		<path fill="#FFFFFF" d="M903.8866,175.5462c-10.1196,0-17.0884,7.623-17.0884,18.7119c0,11.2773,6.8755,18.7119,17.4155,18.7119
			l-0.0024-0.002c6.6147,0,11.3911-2.6221,14.4453-7.5186c0.7505-1.208,0.4424-2.0547-0.9629-2.5049l-0.5522-0.1895
			c-1.1514-0.3525-1.8525,0.2754-2.6997,1.1514c-2.4102,3.0664-5.4438,4.7168-10.1641,4.7168
			c-7.7715,0-12.6338-5.0498-12.7622-13.4443h26.8047c1.3354,0,2.1143-0.749,2.0825-2.1855
			C920.2059,182.5111,913.8461,175.5462,903.8866,175.5462z M891.6952,191.0384c0.835-7.1416,5.5498-11.3135,12.2544-11.3135
			c7.0322,0,11.4751,4.4131,11.8711,11.3135H891.6952z"/>
		<path fill="#FFFFFF" d="M960.8041,164.5189h-0.5527c-1.3354,0-2.082,0.7842-2.082,2.1865v17.8438
			c-2.1138-5.999-7.335-9.0049-13.1797-9.0049c-8.4639,0-16.1357,6.0381-16.1357,18.7119c0,12.7666,7.7046,18.8369,16.2241,18.8369
			v0.001c5.7852,0,10.9775-3.0391,13.0913-8.9697v5.9014c0,1.4023,0.7466,2.1855,2.082,2.1855h0.5527
			c1.3359,0,2.0815-0.7832,2.0815-2.1855v-43.3203C962.8856,165.3031,962.14,164.5189,960.8041,164.5189z M945.9799,208.68
			c-7.5039,0-12.4077-5.46-12.4077-14.4238c0-8.8721,4.9038-14.332,12.2876-14.332c7.4756,0,12.4067,5.5234,12.4067,14.332
			C958.2665,203.1576,953.3954,208.68,945.9799,208.68z"/>
	</g>
	<g>
		<path fill="#FFFFFF" d="M124.5164,101.48c0.6011,2.1523,1.2044,3.8534,1.8077,5.1002c0.6011,1.2479,1.1821,2.1946,1.743,2.8403
			c0.5587,0.6457,1.1402,1.0772,1.743,1.2914c0.6016,0.2152,1.2913,0.3228,2.0664,0.3228v2.4533H97.9181v-2.5827
			c1.2044-0.0848,2.0218-0.3011,2.4533-0.6457c0.4299-0.3435,0.6457-0.8598,0.6457-1.549c0-0.6881-0.1293-1.4414-0.3875-2.2599
			c-0.2582-0.8174-0.5609-1.7859-0.9038-2.9055l-6.585-22.7247H68.8666c-0.3446,1.2066-0.6897,2.3892-1.0326,3.5512
			c-0.3451,1.162-0.7326,2.3457-1.162,3.5501l-0.5169,1.8077c-1.2908,4.0469-2.8202,8.6731-4.5833,13.8809
			c-1.7653,5.2089-3.8311,10.2645-6.198,15.1712c-2.3664,4.9056-5.0779,9.3166-8.134,13.2342
			c-3.0545,3.9164-6.4763,6.6915-10.265,8.3286c-2.9251,1.2044-5.5942,1.8077-8.0052,1.8077c-2.1506,0-4.0675-0.3881-5.7459-1.162
			c-1.6783-0.775-3.0767-1.8077-4.1963-3.099c-1.1174-1.2914-1.9571-2.7762-2.518-4.4545
			c-0.5587-1.6794-0.8392-3.4219-0.8392-5.2295c0-2.2392,0.3875-4.3904,1.162-6.4557l1.4207-0.3881
			c0.9479,0.6881,2.1745,1.2044,3.6795,1.55c1.5071,0.3424,2.9496,0.5163,4.3257,0.5163c4.3898,0,8.2856-1.0772,11.6852-3.2284
			c3.4012-2.1522,6.391-4.948,8.9737-8.3927c2.5822-3.4414,4.7996-7.2731,6.6497-11.4906
			c1.8495-4.2165,3.4213-8.3492,4.7127-12.3961l18.8512-60.5554c-0.4321-0.6881-0.9484-1.1827-1.5495-1.4848
			c-0.6033-0.3011-1.3778-0.537-2.324-0.7109v-2.4533c1.7207,0,3.7219-0.2131,6.004-0.6457
			c2.2794-0.4294,4.5833-0.9881,6.9073-1.6783c2.3245-0.6881,4.5192-1.4196,6.585-2.1946c2.0658-0.775,3.7001-1.549,4.9067-2.324
			l2.0658,1.549L124.5164,101.48z M91.3331,74.7519l-9.9422-33.699l-10.5873,33.699H91.3331z"/>
		<path fill="#FFFFFF" d="M192.7664,105.2187c0.1543,1.9336,0.6963,3.4414,1.624,4.5234c0.9282,1.084,1.8164,1.624,2.668,1.624
			v2.0879h-27.376v-2.0879c1.0044,0,1.9902-0.6562,2.958-1.9717c0.9663-1.3145,1.4502-3.0918,1.4502-5.3359V72.0419
			c0-3.5557-0.542-6.0498-1.624-7.4814c-1.084-1.4307-2.3979-2.1465-3.9438-2.1465c-1.1602,0-2.3784,0.3682-3.6543,1.1025
			c-1.2759,0.7354-2.4561,1.6816-3.5381,2.8418c-1.0835,1.1602-1.9717,2.4561-2.668,3.8857
			c-0.6958,1.4326-1.0439,2.8418-1.0439,4.2344v30.1602c0,2.0117,0.4824,3.6357,1.4502,4.8721
			c0.9658,1.2373,1.9141,1.8555,2.8418,1.8555v2.0879h-27.4917v-2.0879c1.0059,0,1.9917-0.6562,2.958-1.9717
			c0.9678-1.3145,1.4497-3.0918,1.4497-5.3359V66.706c0-2.2422-0.4639-4.002-1.3921-5.2773
			c-0.9277-1.2764-1.894-1.9141-2.8999-1.9141v-2.0879h1.7402c3.48,0,7.0181-0.4824,10.6138-1.4502
			c3.5962-0.9658,6.5923-2.1064,8.9902-3.4219l1.7397,1.2754l-0.0396,9.9766c2.4683-3.248,5.3628-5.7021,8.6816-7.3662
			c3.3169-1.6621,6.5977-2.4941,9.8384-2.4941c2.1602,0,4.2627,0.3682,6.3071,1.1025c2.0449,0.7354,3.8394,1.876,5.3833,3.4219
			c1.5425,1.5479,2.7769,3.4795,3.7031,5.7998s1.3901,5.0273,1.3901,8.1201c0,5.4912-0.02,11.002-0.0581,16.5303
			C192.7845,94.4501,192.7664,99.8828,192.7664,105.2187z"/>
		<path fill="#FFFFFF" d="M271.3815,23.9712c0.4693-0.0273,0.9168-0.0391,1.3448-0.0334c0.4255,0.0064,0.8317,0.0285,1.2172,0.069
			c2.3076,0.2425,4.3753,0.9086,6.2055,1.9936c1.8284,1.0877,3.3643,2.3951,4.6033,3.9245c1.2389,1.5305,2.1492,3.2208,2.733,5.0703
			c0.5818,1.8502,0.7815,3.6593,0.5956,5.4279c-0.3152,2.9991-1.7056,5.4973-4.1698,7.4929
			c-1.3374-2.0838-3.235-3.6246-5.696-4.6227c-2.4615-0.9971-4.77-1.61-6.9222-1.8362c-0.3856-0.0405-0.7318-0.0769-1.0382-0.1091
			c-0.3084-0.0324-0.6583-0.0289-1.0504,0.0065c-2.8704-0.068-5.6604,0.3968-8.3698,1.3945
			c-2.711,0.9985-5.3196,2.3396-7.8286,4.0182c-2.5092,1.6805-7.6308,5.7355-10.9397,10.311
			c3.8662,1.9346,6.978,4.4863,9.3379,7.6562c2.3579,3.1719,3.5381,6.6904,3.5381,10.5557c0,2.9404-0.6958,5.7041-2.0879,8.2939
			c-1.3921,2.5928-3.3062,4.8545-5.7422,6.7861c-2.436,1.9346-5.2778,3.4619-8.5259,4.582
			c-3.248,1.1221-6.728,1.6826-10.4399,1.6826c-3.0161,0-5.8779-0.3867-8.584-1.1602c-2.708-0.7725-5.1821-1.8164-7.4243-3.1318
			c-0.4639,0.6953-0.6958,1.3916-0.6958,2.0879c0,1.3916,1.1602,2.5137,3.48,3.3633c1.4683,0.542,3.2661,1.0645,5.394,1.5664
			c2.126,0.5039,4.4082,1.0264,6.8438,1.5664c2.436,0.542,4.9482,1.1221,7.54,1.7393c2.5903,0.6201,5.1221,1.2764,7.5981,1.9727
			c6.4961,1.9336,11.1543,4.3701,13.978,7.3076c2.8223,2.9404,4.2339,6.0322,4.2339,9.2803v0.6963
			c-0.2319,3.6338-1.644,6.8232-4.2339,9.5693c-2.5918,2.7441-5.8398,5.0459-9.7441,6.9023
			c-3.9058,1.8555-8.2178,3.248-12.9341,4.1758c-4.7178,0.9277-9.3579,1.3926-13.9199,1.3926c-3.248,0-6.3218-0.2324-9.2217-0.6963
			c-2.9004-0.4639-5.4702-1.2002-7.7144-2.2041c-2.8599-1.3164-4.9097-2.8623-6.1479-4.6396
			c-1.2358-1.7803-1.856-3.6367-1.856-5.5684c0-1.624,0.4062-3.2295,1.2183-4.8145c0.812-1.5859,1.9336-2.9775,3.3638-4.1758
			c1.4321-1.2002,3.1519-2.1855,5.1621-2.958c2.0103-0.7734,4.2139-1.1602,6.6118-1.1602c1.9321,0,4.0601,0.3086,6.3804,0.9287
			c-2.7842,2.3193-4.1763,4.7158-4.1763,7.1914c0,1.3926,0.4243,2.7061,1.2759,3.9443c0.8501,1.2363,2.0303,2.2998,3.5381,3.1895
			c1.5083,0.8887,3.248,1.6045,5.2202,2.1465c1.9717,0.54,4.0781,0.8115,6.3218,0.8115c0.8501,0,1.7002-0.0391,2.5522-0.1152
			c0.8501-0.0781,1.7002-0.1943,2.5518-0.3486c2.7842-0.542,4.9102-1.374,6.3799-2.4941c1.4683-1.1211,2.2041-2.3398,2.2041-3.6533
			c0-1.4697-0.8701-3.1143-2.6099-4.9307c-1.7402-1.8174-4.6221-3.3838-8.6421-4.6973c-1.7798-0.542-3.6738-1.084-5.6841-1.624
			c-2.0117-0.542-4.002-1.0645-5.9736-1.5664c-1.9722-0.5039-3.8281-0.9863-5.5684-1.4502c-1.7397-0.4639-3.23-0.9277-4.4658-1.3916
			c-3.79-1.3145-6.5342-2.8604-8.2358-4.6396c-1.7002-1.7783-2.5522-3.6729-2.5522-5.6846c0-2.1641,0.9097-4.3301,2.7261-6.4961
			c1.8179-2.1641,4.272-4.2139,7.3657-6.1475c-2.6299-2.0107-4.6777-4.3301-6.1479-6.96c-1.4678-2.6289-2.2036-5.4521-2.2036-8.4688
			c0-2.9375,0.6958-5.7021,2.0879-8.2939c1.3921-2.5898,3.3057-4.8516,5.7417-6.7861c2.436-1.9316,5.2783-3.46,8.5264-4.582
			c3.248-1.1201,6.728-1.6816,10.4399-1.6816c3.1699,0,6.0317,0.3877,8.584,1.1602c1.4576-2.9305,3.1354-5.5796,6.0598-9.3551
			c2.9228-3.7747,5.9703-7.2457,9.1422-10.411c3.1706-3.1664,6.4017-5.8011,9.6952-7.9039
			C264.9196,25.3335,268.1704,24.1786,271.3815,23.9712z M233.2503,91.5302c1.5459-0.5381,2.7441-1.7324,3.5957-3.5811
			c0.8501-1.8486,1.2764-4.124,1.2764-6.8223c0-2.8496-0.4644-5.7783-1.3921-8.7852c-0.6201-2.0811-1.4121-3.9678-2.3779-5.6641
			c-0.9683-1.6953-1.9922-3.1396-3.0742-4.334c-1.084-1.1943-2.2241-2.1387-3.4219-2.833c-1.1997-0.6924-2.3779-1.04-3.5381-1.04
			c-0.3877,0-0.8901,0.0781-1.5078,0.2314c-1.5479,0.54-2.7461,1.7344-3.5962,3.584c-0.8521,1.8486-1.2759,4.123-1.2759,6.8203
			c0,2.7744,0.4639,5.7041,1.3921,8.7852c1.2358,4.085,3.0342,7.418,5.394,9.999c2.3579,2.5811,4.6978,3.8721,7.0176,3.8721
			C232.1282,91.7626,232.6302,91.6865,233.2503,91.5302z"/>
		<path fill="#FFFFFF" d="M303.6609,102.7822c3.0923-0.3857,5.7222-1.3916,7.8882-3.0156c2.1641-1.624,3.8281-3.4023,4.9878-5.3359
			l2.0884,0.6953c-1.1602,2.7842-2.6104,5.3564-4.3501,7.7148c-1.7402,2.3594-3.8101,4.4072-6.2061,6.1475
			c-2.3979,1.7402-5.0459,3.1143-7.9458,4.1182c-2.9004,1.0059-6.0903,1.5078-9.5703,1.5078c-4.1758,0-8.1016-0.8115-11.7739-2.4355
			c-3.6738-1.624-6.8838-3.8467-9.6279-6.6699c-2.7441-2.8223-4.9102-6.0908-6.4961-9.8027
			c-1.584-3.7119-2.3779-7.6553-2.3779-11.832c0-4.1758,0.7939-8.1191,2.3779-11.832c1.5859-3.7119,3.752-6.9775,6.4961-9.8018
			c2.7441-2.8223,5.9541-5.0635,9.6279-6.7275c3.6724-1.6621,7.5981-2.4941,11.7739-2.4941c4.1763,0,8.042,0.832,11.6001,2.4941
			c3.5562,1.6641,6.6118,3.9053,9.1641,6.7275c2.5518,2.8242,4.562,6.0898,6.0317,9.8018c1.4683,3.7129,2.2041,7.6562,2.2041,11.832
			h-39.4399c0.4639,2.5527,1.2363,4.9883,2.3198,7.3086c1.082,2.3193,2.4541,4.3496,4.1182,6.0898
			c1.6621,1.7402,3.6724,3.1318,6.0322,4.1758c2.3579,1.0439,5.084,1.5664,8.1777,1.5664c0.4639,0,0.9282-0.0186,1.3921-0.0586
			C302.617,102.9179,303.119,102.8603,303.6609,102.7822z M300.5291,79.9306c-1.3159-7.2686-3.1719-12.5459-5.5679-15.834
			c-2.3979-3.2861-4.834-4.9307-7.3081-4.9307c-2.3198,0-4.332,1.374-6.0322,4.1182c-1.7017,2.7461-2.5518,6.6699-2.5518,11.7744
			c0,1.5479,0.1157,3.1719,0.3481,4.8721H300.5291z"/>
		<path fill="#FFFFFF" d="M345.3045,104.0585c0,2.2441,0.4639,4.0215,1.3921,5.3359c0.9277,1.3154,1.894,1.9717,2.8999,1.9717
			v2.0879h-27.4922v-2.0879c0.9282,0,1.856-0.5977,2.7842-1.7979c0.9277-1.1982,1.4697-2.8418,1.624-4.9297V42.6943
			c0-2.2422-0.4824-4.0205-1.4502-5.3359c-0.9658-1.3145-1.9521-1.9717-2.958-1.9717v-2.0879c3.8682,0,7.7524-0.4443,11.6582-1.334
			c3.9043-0.8887,7.1719-2.0303,9.8018-3.4229l1.7402,1.2764V104.0585z"/>
		<path fill="#FFFFFF" d="M416.8753,105.914c-0.542,0.7744-1.1421,1.5283-1.7979,2.2627c-0.6582,0.7354-1.2959,1.4111-1.9141,2.0293
			c-1.2378,1.1602-2.8818,2.0508-4.9302,2.668c-2.0498,0.6201-4.1958,0.9287-6.438,0.9287c-1.624,0-3.21-0.1748-4.7559-0.5225
			c-1.5479-0.3477-2.9199-0.9082-4.1182-1.6816c-1.1997-0.7725-2.166-1.7402-2.8999-2.9004
			c-0.7358-1.1602-1.1021-2.5518-1.1021-4.1758v-2.7842c-1.3159,2.0117-2.8618,3.8477-4.6401,5.5098
			c-1.7798,1.6641-3.7896,3.0361-6.0317,4.1182c-3.0161,1.3926-6.0718,2.0879-9.1641,2.0879c-2.0879,0-4.0601-0.3076-5.916-0.9277
			c-1.856-0.6182-3.5-1.5459-4.9302-2.7842c-1.4297-1.2363-2.5898-2.7441-3.48-4.5234c-0.8882-1.7783-1.334-3.8281-1.334-6.1484
			c0-1.7002,0.29-3.4219,0.8701-5.1621s1.4697-3.3643,2.668-4.8721c1.1997-1.5078,2.7061-2.8994,4.5239-4.1758
			c1.8164-1.2764,4.002-2.2998,6.5542-3.0742c2.0879-0.6182,4.252-1.1602,6.4961-1.624c2.2417-0.4639,4.3496-1.0039,6.3218-1.624
			c1.9722-0.6182,3.6724-1.4297,5.104-2.4355c1.4302-1.0039,2.416-2.3965,2.958-4.1758v-1.2764
			c0-4.4082-0.6577-7.5576-1.9722-9.4541c-1.3154-1.8936-2.8237-2.8418-4.5239-2.8418c-1.856,0-3.6357,0.9277-5.3359,2.7842
			c-1.7017,1.8555-2.668,4.2539-2.8999,7.1914v0.6963c0,1.0059,0.1538,2.1465,0.4639,3.4219
			c0.3081,1.2764,0.8501,2.1465,1.624,2.6104c-0.8516,1.084-2.0498,1.9141-3.5957,2.4941c-1.5479,0.5801-3.21,0.8701-4.9883,0.8701
			c-1.3159,0-2.6099-0.1748-3.8857-0.5225c-1.2764-0.3477-2.418-0.8877-3.4224-1.624c-1.0059-0.7344-1.8159-1.7002-2.436-2.9004
			c-0.6177-1.1973-0.9277-2.6475-0.9277-4.3496c0-2.4736,0.6958-4.7158,2.0879-6.7275c1.3921-2.0107,3.228-3.7305,5.5103-5.1621
			c2.2798-1.4307,4.8716-2.5322,7.772-3.3066c2.8999-0.7715,5.896-1.1592,8.9897-1.1592h0.9282
			c3.1699,0.0771,6.2822,0.4834,9.3379,1.2178c3.0542,0.7354,5.7603,1.9141,8.1201,3.5381c2.3579,1.624,4.272,3.7314,5.7417,6.3213
			c1.4683,2.5918,2.2041,5.7822,2.2041,9.5703v30.7402c0,1.084,0.29,1.8555,0.8701,2.3193
			c0.5801,0.4648,1.2559,0.6963,2.0298,0.6963c0.8501,0,1.7202-0.2314,2.6104-0.6963c0.8877-0.4639,1.604-1.1201,2.146-1.9717
			L416.8753,105.914z M383.6995,102.3183c0.9277-0.54,1.856-1.2764,2.7837-2.2041c0.9282-0.9277,1.7402-2.126,2.436-3.5957v-18.792
			c-2.3979,1.5479-4.9302,3.3643-7.5981,5.4521s-4.8916,4.3701-6.6699,6.8438c-1.4697,2.166-2.2041,4.332-2.2041,6.4961
			c0,2.0117,0.5981,3.7119,1.7983,5.1035c1.1978,1.3926,2.8022,2.0879,4.814,2.0879
			C380.5276,103.7099,382.0755,103.246,383.6995,102.3183z"/>
		<path fill="#FFFFFF" d="M415.3371,45.2328c1.5479-1.7783,2.7456-3.4023,3.5957-4.8721c0.8501-1.4678,1.2759-2.9385,1.2759-4.4082
			c0-1.1602-0.2715-2.2422-0.812-3.248c-0.3081-0.6182-0.6558-1.1602-1.0439-1.624c-0.3857-0.4639-0.7539-0.9277-1.1021-1.3916
			c-0.3477-0.4639-0.6558-0.9463-0.9277-1.4502c-0.27-0.502-0.4443-1.1777-0.522-2.0303v-0.5801
			c0-2.7061,0.8701-4.7354,2.6099-6.0898c1.7402-1.3516,3.6919-2.0293,5.8579-2.0293c2.0884,0,4.002,0.6777,5.7422,2.0293
			c1.7397,1.3545,2.6099,3.4619,2.6099,6.3223c0,2.0879-0.4639,4.1582-1.3921,6.2061c-0.9277,2.0498-2.1655,3.9639-3.7119,5.7422
			c-1.5479,1.7793-3.3057,3.3838-5.2778,4.8135c-1.9722,1.4326-4.002,2.5723-6.0898,3.4219L415.3371,45.2328z"/>
		<path fill="#FFFFFF" d="M472.0897,80.9746c3.0161,2.0117,5.2378,4.332,6.6699,6.96c1.4302,2.6299,2.146,5.2979,2.146,8.0039
			c0,2.708-0.6777,5.376-2.0303,8.0039c-1.3535,2.6299-3.2676,4.9502-5.7417,6.96c-2.6299,2.0879-5.7422,3.6543-9.3379,4.6982
			c-3.5962,1.0439-7.25,1.5654-10.9624,1.5654c-3.0938,0-6.0898-0.3291-8.9897-0.9854s-5.4917-1.6621-7.772-3.0166
			c-2.2803-1.3516-4.0981-3.0156-5.4521-4.9873c-1.3521-1.9727-2.0298-4.2344-2.0298-6.7861c0-2.0107,0.3877-3.7705,1.1597-5.2783
			c0.7739-1.5078,1.7983-2.7441,3.0742-3.7119c1.2759-0.9658,2.7261-1.7002,4.3501-2.2041c1.624-0.502,3.248-0.7539,4.8721-0.7539
			c3.0918,0,5.7598,0.7744,8.0039,2.3203v0.9277c-1.3921,1.2383-2.3979,2.5518-3.0161,3.9443
			c-0.6196,1.3916-0.9277,2.8232-0.9277,4.292c0,2.4756,0.8301,4.6592,2.4937,6.5537c1.6621,1.8955,4.002,3.0361,7.0181,3.4219
			c0.3862,0.0781,0.9663,0.1162,1.7402,0.1162c2.396,0,4.5239-0.5986,6.3799-1.7979c1.856-1.1982,2.7837-3.0342,2.7837-5.5107
			c0-2.2412-0.9097-4.252-2.7256-6.0312c-1.8184-1.7783-4.0801-3.4404-6.7861-4.9883c-2.708-1.5459-5.626-3.0918-8.7578-4.6396
			c-3.1323-1.5469-6.0522-3.208-8.7583-4.9883c-2.708-1.7783-4.9497-3.8086-6.728-6.0898c-1.7778-2.2803-2.668-4.9307-2.668-7.9463
			s0.7358-5.626,2.2041-7.8301c1.4697-2.2041,3.3442-4.0195,5.626-5.4521c2.2803-1.4297,4.814-2.5117,7.5981-3.248
			c2.7837-0.7334,5.5278-1.1016,8.2358-1.1016h1.5078c3.8662,0.2314,7.6362,1.0635,11.3101,2.4941
			c3.6724,1.4316,7.1343,3.2676,10.3823,5.5098l-1.7402,14.1523l-2.0879-0.1162c-1.0059-2.0098-2.1279-4.0986-3.3643-6.2637
			c-1.2378-2.165-2.668-4.1367-4.292-5.916c-1.9336-2.165-3.8857-3.6924-5.8579-4.582c-1.9717-0.8887-3.8477-1.334-5.626-1.334
			c-2.0117,0-3.6938,0.5215-5.0459,1.5654c-1.354,1.0439-2.0303,2.418-2.0303,4.1182c0,1.3154,0.5024,2.7656,1.5083,4.3496
			c1.0039,1.5859,2.668,3.1523,4.9878,4.6982c2.7842,1.8564,5.8384,3.6357,9.1641,5.3359
			C465.9017,77.1083,469.0735,78.9638,472.0897,80.9746z"/>
		<path fill="#FFFFFF" d="M596.7507,75.2225v2.716c-1.2059,0-2.1739,0.8114-2.9039,2.4318
			c-0.7317,1.6216-1.0967,3.9102-1.0967,6.8633v38.3254h-3.6133c-0.7741-2.0959-1.7421-4.1702-2.9034-6.2216
			c-1.1613-2.049-2.345-3.6935-3.5487-4.9335c-1.2906,1.5265-2.9479,2.9314-4.9686,4.2184
			c-2.0223,1.2881-4.2158,2.409-6.5809,3.3612c-2.3672,0.9535-4.797,1.6939-7.2914,2.2163
			c-2.4965,0.5249-4.8193,0.7861-6.9687,0.7861c-7.4,0-13.8945-1.476-19.4862-4.4327c-5.5933-2.9543-10.2589-6.8862-14.0015-11.798
			c-3.7421-4.9082-6.5591-10.4858-8.4522-16.7303c-1.8914-6.2433-2.8393-12.6563-2.8393-19.2343
			c0-4.7661,0.496-9.5094,1.484-14.2286c0.9902-4.7192,2.4966-9.1988,4.5167-13.4413c2.0201-4.2413,4.5591-8.1274,7.614-11.6547
			c3.0528-3.5261,6.6015-6.5298,10.6462-9.0098c2.7524-1.6192,5.7427-2.9062,8.9688-3.8608
			c3.2261-0.9523,6.6461-1.6204,10.2594-2.002c0.5161-0.0939,1.0321-0.1433,1.5481-0.1433c0.5166,0,1.075,0,1.678,0
			c2.6655,0,5.4401,0.2396,8.3234,0.7151c2.8812,0.4779,5.6982,1.122,8.4528,1.931c2.7518,0.8114,5.3331,1.7649,7.7427,2.8592
			c2.4075,1.0979,4.5167,2.2657,6.3234,3.5045l-4.2587,27.5988l-2.194,0.5718l-2.968-6.2915
			c-3.8714-8.1984-8.1301-14.4658-12.7755-18.8045c-4.646-4.3376-9.0779-6.5069-13.2921-6.5069
			c-4.3027,0-8.0654,2.3596-11.2915,7.0788c-3.226,4.7192-5.3554,12.1796-6.388,22.3788c-0.1733,1.5265-0.302,3.0747-0.3868,4.6482
			c-0.0869,1.5723-0.1293,3.171-0.1293,4.7902c0,5.6269,0.452,11.2743,1.3553,16.9458c0.9034,5.6727,2.2581,10.9396,4.0648,15.8021
			c1.8067,4.8613,4.0208,9.129,6.6461,12.7984c2.6231,3.6706,5.6134,6.3167,8.9688,7.936c0.8588,0.4791,1.6975,0.7873,2.5161,0.9294
			c0.817,0.1433,1.6133,0.2155,2.3874,0.2155c2.7524,0,5.0974-1.1918,7.0333-3.5755c1.9354-2.3813,2.9034-5.9568,2.9034-10.7253
			V87.2336c0-1.429-0.3226-2.7388-0.968-3.9319c-0.6448-1.1906-1.3993-2.167-2.2581-2.9314
			c-0.861-0.7621-1.742-1.3592-2.6454-1.7878c-0.9033-0.4286-1.6573-0.6441-2.2586-0.6441v-2.716H596.7507z"/>
		<path fill="#FFFFFF" d="M625.5021,104.0585c0,2.2441,0.4639,4.0215,1.3921,5.3359c0.9277,1.3154,1.894,1.9717,2.8999,1.9717
			v2.0879h-27.4922v-2.0879c0.9282,0,1.856-0.5977,2.7842-1.7979c0.9277-1.1982,1.4697-2.8418,1.624-4.9297V42.6943
			c0-2.2422-0.4824-4.0205-1.4502-5.3359c-0.9658-1.3145-1.9521-1.9717-2.958-1.9717v-2.0879c3.8682,0,7.7524-0.4443,11.6582-1.334
			c3.9043-0.8887,7.1719-2.0303,9.8018-3.4229l1.7402,1.2764V104.0585z"/>
		<path fill="#FFFFFF" d="M697.0729,105.914c-0.542,0.7744-1.1421,1.5283-1.7979,2.2627c-0.6582,0.7354-1.2959,1.4111-1.9141,2.0293
			c-1.2378,1.1602-2.8818,2.0508-4.9302,2.668c-2.0498,0.6201-4.1958,0.9287-6.438,0.9287c-1.624,0-3.21-0.1748-4.7559-0.5225
			c-1.5479-0.3477-2.9199-0.9082-4.1182-1.6816c-1.1997-0.7725-2.166-1.7402-2.8999-2.9004
			c-0.7358-1.1602-1.1021-2.5518-1.1021-4.1758v-2.7842c-1.3159,2.0117-2.8618,3.8477-4.6401,5.5098
			c-1.7798,1.6641-3.7896,3.0361-6.0317,4.1182c-3.0161,1.3926-6.0718,2.0879-9.1641,2.0879c-2.0879,0-4.0601-0.3076-5.916-0.9277
			c-1.856-0.6182-3.5-1.5459-4.9302-2.7842c-1.4297-1.2363-2.5898-2.7441-3.48-4.5234c-0.8882-1.7783-1.334-3.8281-1.334-6.1484
			c0-1.7002,0.29-3.4219,0.8701-5.1621s1.4697-3.3643,2.668-4.8721c1.1997-1.5078,2.7061-2.8994,4.5239-4.1758
			c1.8164-1.2764,4.002-2.2998,6.5542-3.0742c2.0879-0.6182,4.252-1.1602,6.4961-1.624c2.2417-0.4639,4.3496-1.0039,6.3218-1.624
			c1.9722-0.6182,3.6724-1.4297,5.104-2.4355c1.4302-1.0039,2.416-2.3965,2.958-4.1758v-1.2764
			c0-4.4082-0.6577-7.5576-1.9722-9.4541c-1.3154-1.8936-2.8237-2.8418-4.5239-2.8418c-1.856,0-3.6357,0.9277-5.3359,2.7842
			c-1.7017,1.8555-2.668,4.2539-2.8999,7.1914v0.6963c0,1.0059,0.1538,2.1465,0.4639,3.4219
			c0.3081,1.2764,0.8501,2.1465,1.624,2.6104c-0.8516,1.084-2.0498,1.9141-3.5957,2.4941c-1.5479,0.5801-3.21,0.8701-4.9883,0.8701
			c-1.3159,0-2.6099-0.1748-3.8857-0.5225c-1.2764-0.3477-2.418-0.8877-3.4224-1.624c-1.0059-0.7344-1.8159-1.7002-2.436-2.9004
			c-0.6177-1.1973-0.9277-2.6475-0.9277-4.3496c0-2.4736,0.6958-4.7158,2.0879-6.7275c1.3921-2.0107,3.228-3.7305,5.5103-5.1621
			c2.2798-1.4307,4.8716-2.5322,7.772-3.3066c2.8999-0.7715,5.896-1.1592,8.9897-1.1592h0.9282
			c3.1699,0.0771,6.2822,0.4834,9.3379,1.2178c3.0542,0.7354,5.7603,1.9141,8.1201,3.5381c2.3579,1.624,4.272,3.7314,5.7417,6.3213
			c1.4683,2.5918,2.2041,5.7822,2.2041,9.5703v30.7402c0,1.084,0.29,1.8555,0.8701,2.3193
			c0.5801,0.4648,1.2559,0.6963,2.0298,0.6963c0.8501,0,1.7202-0.2314,2.6104-0.6963c0.8877-0.4639,1.604-1.1201,2.146-1.9717
			L697.0729,105.914z M663.8971,102.3183c0.9277-0.54,1.856-1.2764,2.7837-2.2041c0.9282-0.9277,1.7402-2.126,2.436-3.5957v-18.792
			c-2.3979,1.5479-4.9302,3.3643-7.5981,5.4521s-4.8916,4.3701-6.6699,6.8438c-1.4697,2.166-2.2041,4.332-2.2041,6.4961
			c0,2.0117,0.5981,3.7119,1.7983,5.1035c1.1978,1.3926,2.8022,2.0879,4.814,2.0879
			C660.7252,103.7099,662.2731,103.246,663.8971,102.3183z"/>
		<path fill="#FFFFFF" d="M740.34,80.9746c3.0161,2.0117,5.2378,4.332,6.6699,6.96c1.4302,2.6299,2.146,5.2979,2.146,8.0039
			c0,2.708-0.6777,5.376-2.0303,8.0039c-1.3535,2.6299-3.2676,4.9502-5.7417,6.96c-2.6299,2.0879-5.7422,3.6543-9.3379,4.6982
			c-3.5962,1.0439-7.25,1.5654-10.9624,1.5654c-3.0938,0-6.0898-0.3291-8.9897-0.9854s-5.4917-1.6621-7.772-3.0166
			c-2.2803-1.3516-4.0981-3.0156-5.4521-4.9873c-1.3521-1.9727-2.0298-4.2344-2.0298-6.7861c0-2.0107,0.3877-3.7705,1.1597-5.2783
			c0.7739-1.5078,1.7983-2.7441,3.0742-3.7119c1.2759-0.9658,2.7261-1.7002,4.3501-2.2041c1.624-0.502,3.248-0.7539,4.8721-0.7539
			c3.0918,0,5.7598,0.7744,8.0039,2.3203v0.9277c-1.3921,1.2383-2.3979,2.5518-3.0161,3.9443
			c-0.6196,1.3916-0.9277,2.8232-0.9277,4.292c0,2.4756,0.8301,4.6592,2.4937,6.5537c1.6621,1.8955,4.002,3.0361,7.0181,3.4219
			c0.3862,0.0781,0.9663,0.1162,1.7402,0.1162c2.396,0,4.5239-0.5986,6.3799-1.7979c1.856-1.1982,2.7837-3.0342,2.7837-5.5107
			c0-2.2412-0.9097-4.252-2.7256-6.0312c-1.8184-1.7783-4.0801-3.4404-6.7861-4.9883c-2.708-1.5459-5.626-3.0918-8.7578-4.6396
			c-3.1323-1.5469-6.0522-3.208-8.7583-4.9883c-2.708-1.7783-4.9497-3.8086-6.728-6.0898c-1.7778-2.2803-2.668-4.9307-2.668-7.9463
			s0.7358-5.626,2.2041-7.8301c1.4697-2.2041,3.3442-4.0195,5.626-5.4521c2.2803-1.4297,4.814-2.5117,7.5981-3.248
			c2.7837-0.7334,5.5278-1.1016,8.2358-1.1016h1.5078c3.8662,0.2314,7.6362,1.0635,11.3101,2.4941
			c3.6724,1.4316,7.1343,3.2676,10.3823,5.5098l-1.7402,14.1523l-2.0879-0.1162c-1.0059-2.0098-2.1279-4.0986-3.3643-6.2637
			c-1.2378-2.165-2.668-4.1367-4.292-5.916c-1.9336-2.165-3.8857-3.6924-5.8579-4.582c-1.9717-0.8887-3.8477-1.334-5.626-1.334
			c-2.0117,0-3.6938,0.5215-5.0459,1.5654c-1.354,1.0439-2.0303,2.418-2.0303,4.1182c0,1.3154,0.5024,2.7656,1.5083,4.3496
			c1.0039,1.5859,2.668,3.1523,4.9878,4.6982c2.7842,1.8564,5.8384,3.6357,9.1641,5.3359
			C734.152,77.1083,737.3239,78.9638,740.34,80.9746z"/>
		<path fill="#FFFFFF" d="M795.3239,80.9746c3.0161,2.0117,5.2378,4.332,6.6699,6.96c1.4302,2.6299,2.146,5.2979,2.146,8.0039
			c0,2.708-0.6777,5.376-2.0303,8.0039c-1.3535,2.6299-3.2676,4.9502-5.7417,6.96c-2.6299,2.0879-5.7422,3.6543-9.3379,4.6982
			c-3.5962,1.0439-7.25,1.5654-10.9624,1.5654c-3.0938,0-6.0898-0.3291-8.9897-0.9854s-5.4917-1.6621-7.772-3.0166
			c-2.2803-1.3516-4.0981-3.0156-5.4521-4.9873c-1.3521-1.9727-2.0298-4.2344-2.0298-6.7861c0-2.0107,0.3877-3.7705,1.1597-5.2783
			c0.7739-1.5078,1.7983-2.7441,3.0742-3.7119c1.2759-0.9658,2.7261-1.7002,4.3501-2.2041c1.624-0.502,3.248-0.7539,4.8721-0.7539
			c3.0918,0,5.7598,0.7744,8.0039,2.3203v0.9277c-1.3921,1.2383-2.3979,2.5518-3.0161,3.9443
			c-0.6196,1.3916-0.9277,2.8232-0.9277,4.292c0,2.4756,0.8301,4.6592,2.4937,6.5537c1.6621,1.8955,4.002,3.0361,7.0181,3.4219
			c0.3862,0.0781,0.9663,0.1162,1.7402,0.1162c2.396,0,4.5239-0.5986,6.3799-1.7979c1.856-1.1982,2.7837-3.0342,2.7837-5.5107
			c0-2.2412-0.9097-4.252-2.7256-6.0312c-1.8184-1.7783-4.0801-3.4404-6.7861-4.9883c-2.708-1.5459-5.626-3.0918-8.7578-4.6396
			c-3.1323-1.5469-6.0522-3.208-8.7583-4.9883c-2.708-1.7783-4.9497-3.8086-6.728-6.0898c-1.7778-2.2803-2.668-4.9307-2.668-7.9463
			s0.7358-5.626,2.2041-7.8301c1.4697-2.2041,3.3442-4.0195,5.626-5.4521c2.2803-1.4297,4.814-2.5117,7.5981-3.248
			c2.7837-0.7334,5.5278-1.1016,8.2358-1.1016h1.5078c3.8662,0.2314,7.6362,1.0635,11.3101,2.4941
			c3.6724,1.4316,7.1343,3.2676,10.3823,5.5098l-1.7402,14.1523l-2.0879-0.1162c-1.0059-2.0098-2.1279-4.0986-3.3643-6.2637
			c-1.2378-2.165-2.668-4.1367-4.292-5.916c-1.9336-2.165-3.8857-3.6924-5.8579-4.582c-1.9717-0.8887-3.8477-1.334-5.626-1.334
			c-2.0117,0-3.6938,0.5215-5.0459,1.5654c-1.354,1.0439-2.0303,2.418-2.0303,4.1182c0,1.3154,0.5024,2.7656,1.5083,4.3496
			c1.0039,1.5859,2.668,3.1523,4.9878,4.6982c2.7842,1.8564,5.8384,3.6357,9.1641,5.3359
			C789.1359,77.1083,792.3077,78.9638,795.3239,80.9746z"/>
		<path fill="#FFFFFF" d="M868.0221,41.4092c1.92,2.2204,4.1731,4.327,6.7597,6.3236c2.5852,1.9984,5.3006,3.9585,8.1456,5.8804
			c2.8432,1.9219,5.7069,3.882,8.5883,5.8785c2.8814,1.9984,5.6136,4.1059,8.2007,6.3245c2.5852,2.2195,4.9316,4.5864,7.0373,7.1007
			c2.1052,2.5143,3.785,5.288,5.0421,8.3182c0.9591,2.2941,1.6434,4.5146,2.0502,6.6585c0.4054,2.143,0.6097,4.2505,0.6097,6.3217
			c0,4.8831-1.1083,9.3939-3.3246,13.5353c-2.2167,4.1404-5.1914,7.709-8.9214,10.7047c-3.7313,2.9957-8.0724,5.344-13.0212,7.0457
			c-4.9507,1.6989-10.1589,2.5507-15.6255,2.5507c-5.0249,0-10.012-0.7762-14.9609-2.3277
			c-3.6203-1.1074-6.7233-2.5488-9.3085-4.3214c-2.5871-1.7735-4.71-3.7318-6.3726-5.8739c-1.662-2.143-2.881-4.4325-3.6567-6.8703
			c-0.7758-2.4387-1.1638-4.8766-1.1638-7.3144c0-3.103,0.5733-6.1127,1.718-9.0319c1.1461-2.9174,2.7513-5.5222,4.8206-7.8126
			c2.0674-2.2895,4.5799-4.1181,7.5355-5.4858c2.9542-1.3658,6.2061-2.0506,9.7522-2.0506c2.6599,0,5.5031,0.4441,8.5333,1.3304
			c2.0674,0.6652,4.0262,1.5702,5.8734,2.7149c1.8458,1.1466,3.4529,2.5488,4.8206,4.2114
			c1.3663,1.6625,2.4383,3.5462,3.2141,5.6518c0.7758,2.1057,1.1634,4.4157,1.1634,6.9263c0,1.3295-0.1105,2.6599-0.3322,3.9893
			c-0.5178,3.3251-1.8113,6.1678-3.8787,8.5328c-2.0693,2.3641-4.9144,3.6572-8.5333,3.8792h-1.1083
			c-1.9947,0-3.9338-0.4264-5.8179-1.2744c-1.8841-0.8499-3.4907-2.199-4.8206-4.0453c3.8405-3.5462,6.5936-7.0177,8.2562-10.4164
			c1.662-3.3978,2.4933-6.317,2.4933-8.7548c0-1.6989-0.3326-3.0657-0.9974-4.1003c-0.6652-1.0337-1.5515-1.7353-2.6599-2.1057
			c-0.8135-0.222-1.5515-0.3331-2.2162-0.3331c-1.9219,0-3.7127,0.5924-5.3748,1.7735c-1.6625,1.183-3.103,2.7532-4.322,4.7096
			c-1.2194,1.9583-2.1803,4.1563-2.8814,6.5941c-0.703,2.4378-1.0529,4.8756-1.0529,7.3144c0,2.1411,0.2771,4.1918,0.8313,6.15
			c0.5541,1.9564,1.4405,3.7299,2.6594,5.3197c1.2194,1.5879,2.8073,2.9173,4.7656,3.9893c1.9564,1.0701,4.3392,1.754,7.1478,2.0497
			c0.4431,0.0728,0.904,0.111,1.3854,0.111c0.4795,0,0.9418,0,1.3849,0c3.3246,0,6.3721-0.5728,9.1425-1.7176
			c2.7709-1.1466,5.1531-2.6981,7.1483-4.6545c1.9947-1.9583,3.5634-4.2664,4.7096-6.9263c1.1447-2.6599,1.718-5.5026,1.718-8.5328
			c0-3.7682-0.9614-7.6278-2.8814-11.5808c-1.9224-3.952-5.0613-7.8126-9.4196-11.5808c-2.3655-1.9947-4.8401-3.896-7.4254-5.7069
			c-2.5866-1.8099-5.1168-3.6021-7.591-5.3747c-2.4761-1.7735-4.8588-3.5275-7.1478-5.2647
			c-2.2909-1.7344-4.2491-3.4902-5.8734-5.2637c-2.3655-2.5106-4.1003-5.0044-5.2087-7.4804
			c-1.1083-2.4742-1.662-4.8933-1.662-7.2584c0-2.9547,0.793-5.7442,2.3823-8.3667c1.5879-2.6216,3.7491-4.8933,6.4831-6.8162
			c2.7327-1.92,5.9462-3.4351,9.6412-4.5435c3.6935-1.1084,7.6087-1.6625,11.7473-1.6625c0.4431,0,0.8863,0.0196,1.3295,0.056
			c0.4436,0.0383,0.8868,0.055,1.3299,0.055c5.0977,0.2892,9.6225,1.1382,13.5754,2.5442
			c3.9515,1.4078,7.3316,2.9603,10.1403,4.6592c-0.3708,3.103-0.6475,6.3553-0.8312,9.7522
			c-0.1852,3.3997-0.3154,6.7602-0.3876,10.0852l-2.5488,0.3321c-3.2523-8.3481-6.8712-14.2957-10.8605-17.8418
			c-1.9947-1.7735-4.0449-3.048-6.1505-3.8232c-2.1057-0.7762-4.1194-1.1643-6.04-1.1643c-3.2518,0-5.9839,0.9255-8.2006,2.7746
			c-2.2162,1.8491-3.3246,4.1778-3.3246,6.9888c0,1.3313,0.2943,2.7177,0.8868,4.161
			C865.7312,38.4713,866.6921,39.9305,868.0221,41.4092z"/>
		<path fill="#FFFFFF" d="M993.2919,25.6425c4.0981,0.3096,7.2881,1.6055,9.5703,3.8857c2.2798,2.2822,3.4219,4.9297,3.4219,7.9463
			c0,1.7021-0.3882,3.3838-1.1602,5.0459c-0.7739,1.6641-1.9722,3.2676-3.5957,4.8135c-1.7803-2.3955-3.8682-4.0977-6.2642-5.1035
			c-2.3979-1.0039-5.0659-1.5078-8.0039-1.5078c-3.5581,0-7.3481,0.5996-11.3682,1.7979c-4.022,1.2002-8.062,2.6104-12.1221,4.2344
			c-4.0601,1.623-8.0239,3.3057-11.8901,5.0459c-3.8677,1.7393-7.3857,3.1514-10.5557,4.2334v50.026
			c0,1.084,0.27,1.8555,0.812,2.3193c0.54,0.4648,1.1978,0.6963,1.9717,0.6963c0.8501,0,1.7202-0.25,2.6104-0.7539
			c0.8882-0.502,1.604-1.1777,2.146-2.0303l1.624,1.5088c-0.6201,0.7734-1.2383,1.5273-1.856,2.2617
			c-0.6201,0.7354-1.2764,1.4121-1.9722,2.0303c-1.2378,1.1592-2.8784,2.0498-4.9229,2.668
			c-2.0444,0.6191-4.1797,0.9277-6.4092,0.9277c-1.6128,0-3.1899-0.1738-4.7266-0.5225c-1.5371-0.3477-2.9019-0.9072-4.0928-1.6816
			c-1.1909-0.7725-2.1514-1.7402-2.8818-2.9004c-0.7285-1.1592-1.0947-2.5518-1.0947-4.1758V57.0781h-5.6841V53.83
			c2.0879-0.2314,4.1924-1.0039,6.3091-2.3193c2.1191-1.3145,4.1782-2.9385,6.1772-4.8721
			c1.9976-1.9326,3.8804-3.9824,5.6494-6.1484c1.7671-2.1641,3.3042-4.2139,4.6113-6.1475l1.729,1.0439v15.5439
			c3.5562-1.5459,7.4819-3.7305,11.7739-6.5547c4.292-2.8213,8.6602-5.626,13.1079-8.4092c4.4463-2.7842,8.8921-5.2002,13.3398-7.25
			c4.4463-2.0488,8.6421-3.0742,12.5864-3.0742H993.2919z"/>
		<path fill="#FFFFFF" d="M1013.5336,107.7128c0.9663,1.2754,1.9521,1.9131,2.958,1.9131v2.0889h-1.7397
			c-3.5688,0-7.1812,0.3477-10.8389,1.0439c-3.6577,0.6953-6.6519,1.7012-8.9863,3.0156l-1.751-1.3916l0.0762-9.8604
			c-2.3452,3.7119-5.1582,6.4199-8.4409,8.1201c-3.2822,1.7021-6.5649,2.5518-9.8472,2.5518c-2.3818,0-4.6689-0.4443-6.8584-1.334
			c-2.1899-0.8877-4.1309-2.1836-5.8218-3.8857c-1.6914-1.7002-3.0361-3.8086-4.0347-6.3223
			c-0.9971-2.5117-1.4971-5.4316-1.4971-8.7578V65.7783c0-2.0098-0.4824-3.5557-1.4502-4.6396
			c-0.9658-1.082-1.9141-1.624-2.8418-1.624v-2.0879c3.8604,0,7.73-0.4639,11.6123-1.3926c3.8809-0.9277,7.167-2.0879,9.8564-3.4795
			l1.6152,1.2754v41.9922c0,3.5576,0.6616,6.0723,1.9844,7.54c1.3232,1.4697,2.9185,2.2041,4.7871,2.2041
			c1.2451,0,2.5303-0.29,3.853-0.8701c1.3232-0.5801,2.5103-1.334,3.5615-2.2617s1.9067-2.0098,2.5684-3.248
			c0.6616-1.2363,0.9937-2.5127,0.9937-3.8281V66.4746c0-2.2422-0.4844-3.9619-1.4502-5.1621
			c-0.9678-1.1982-1.9541-1.7979-2.958-1.7979v-2.0879c3.8716,0,7.7539-0.4639,11.6455-1.3926
			c3.8896-0.9277,7.1973-2.0879,9.9194-3.4795l1.6353,1.2754v48.6045C1012.0839,104.6787,1012.5659,106.4365,1013.5336,107.7128z"/>
		<path fill="#FFFFFF" d="M1077.1597,104.0585c0,2.2441,0.4644,4.0215,1.3921,5.3359c0.9282,1.3154,1.9321,1.9717,3.0161,1.9717
			v2.0879h-23.2002v-9.2793c-1.5479,2.707-3.5776,4.9297-6.0898,6.6699c-2.5142,1.7393-5.7817,2.6094-9.8018,2.6094
			c-3.5581,0-6.6899-0.8115-9.396-2.4355c-2.708-1.624-4.9883-3.75-6.8442-6.3799c-1.856-2.6279-3.2481-5.626-4.1758-8.9902
			c-0.9282-3.3643-1.3921-6.8242-1.3921-10.3818c0-3.7881,0.542-7.5586,1.624-11.3105c1.0835-3.75,2.7457-7.1133,4.9879-10.0918
			c2.2422-2.9756,5.064-5.374,8.4683-7.1914c3.4019-1.8164,7.3838-2.7266,11.9478-2.7266h0.5801
			c2.2422,0,4.1758,0.3477,5.7998,1.0439s3.0923,1.5479,4.4082,2.5518V41.7665c0-2.2422-0.4839-4.002-1.4502-5.2783
			c-0.9678-1.2754-1.9536-1.9141-2.958-1.9141v-2.0879c3.937,0,7.8281-0.4639,11.6709-1.3916
			c3.8423-0.9287,7.0308-2.0879,9.5684-3.4805l1.8447,1.2764V104.0585z M1047.397,108.0019c1.7109,0,3.248-0.9062,4.6089-2.7188
			c1.3613-1.8125,2.5088-4.1465,3.4438-7.001c0.9336-2.8545,1.6528-6.0381,2.1587-9.5488c0.5059-3.5088,0.7593-7,0.7593-10.4727
			c0-2.5439-0.1558-4.9951-0.4673-7.3477c-0.312-2.3525-0.7578-4.4365-1.3413-6.249c-0.584-1.8125-1.3633-3.2412-2.3345-4.2832
			c-0.9736-1.04-2.0825-1.5625-3.3262-1.5625c-1.8687,0-3.5034,0.8877-4.9028,2.6631c-1.4009,1.7744-2.5884,4.0684-3.5596,6.8848
			c-0.9731,2.8174-1.7129,5.96-2.2188,9.4326c-0.5054,3.4727-0.7573,6.9434-0.7573,10.415c0,2.5459,0.1538,4.9766,0.4658,7.291
			c0.3115,2.3145,0.7593,4.3789,1.3428,6.1914c0.584,1.8125,1.3213,3.2793,2.2168,4.3975s1.9648,1.7549,3.21,1.9082H1047.397z"/>
		<path fill="#FFFFFF" d="M1109.0601,104.6386c0,2.0879,0.4819,3.7314,1.4497,4.9297c0.9663,1.2002,1.9141,1.7979,2.8423,1.7979
			v2.0879h-27.4922v-2.0879c1.0059,0,1.9917-0.6562,2.958-1.9717c0.9678-1.3145,1.4502-3.0918,1.4502-5.3359V66.706
			c0-2.2422-0.4644-4.002-1.3921-5.2773c-0.9282-1.2764-1.894-1.9141-2.8999-1.9141v-2.0879c3.7896,0,7.6558-0.4639,11.5996-1.3926
			c3.9443-0.9277,7.1924-2.0879,9.7441-3.4795l1.7402,1.2754V104.6386z M1099.1401,48.0302c-1.5391,0-2.9619-0.2695-4.2686-0.8115
			c-1.3086-0.54-2.4434-1.2764-3.4038-2.2041c-0.959-0.9287-1.729-2.0107-2.3071-3.248c-0.5747-1.2363-0.8647-2.5518-0.8647-3.9443
			c0-1.3916,0.29-2.7256,0.8647-4.002c0.5781-1.2764,1.3481-2.3779,2.3071-3.3057c0.9604-0.9287,2.0952-1.6621,3.4038-2.2041
			c1.3066-0.54,2.7295-0.8125,4.2686-0.8125c2.9219,0,5.4028,1.0059,7.4419,3.0166c2.0376,2.0117,3.0576,4.4473,3.0576,7.3076
			c0,1.3926-0.27,2.708-0.8081,3.9443c-0.5386,1.2373-1.2886,2.3193-2.2495,3.248c-0.9624,0.9277-2.0771,1.6641-3.3457,2.2041
			C1101.9678,47.7607,1100.6011,48.0302,1099.1401,48.0302z"/>
		<path fill="#FFFFFF" d="M1147.1074,53.1347c4.1758,0,8.1201,0.7939,11.832,2.3779c3.7119,1.5859,6.9399,3.7695,9.686,6.5537
			c2.7441,2.7842,4.9102,6.0322,6.4961,9.7441c1.584,3.7119,2.3779,7.6562,2.3779,11.832s-0.7939,8.1016-2.3779,11.7734
			c-1.5859,3.6748-3.752,6.9023-6.4961,9.6865c-2.7461,2.7842-5.9741,4.9697-9.686,6.5537
			c-3.7119,1.5859-7.6562,2.3779-11.832,2.3779c-4.1763,0-8.1201-0.792-11.832-2.3779c-3.7119-1.584-6.9419-3.7695-9.686-6.5537
			c-2.7461-2.7842-4.9102-6.0117-6.4961-9.6865c-1.584-3.6719-2.3779-7.5977-2.3779-11.7734s0.7939-8.1201,2.3779-11.832
			c1.5859-3.7119,3.75-6.96,6.4961-9.7441c2.7441-2.7842,5.9741-4.9678,9.686-6.5537
			C1138.9873,53.9287,1142.9312,53.1347,1147.1074,53.1347z M1147.1074,58.0068c-1.3921,0-2.708,0.6953-3.9438,2.084
			c-1.2383,1.3887-2.3203,3.2783-3.248,5.6709c-0.9282,2.3926-1.6641,5.21-2.2041,8.4502c-0.542,3.2412-0.812,6.6758-0.812,10.3008
			c0,3.7041,0.27,7.1768,0.812,10.418c0.54,3.2412,1.2759,6.0576,2.2041,8.4502c0.9277,2.3926,2.0098,4.2822,3.248,5.6709
			c1.2358,1.3887,2.5518,2.083,3.9438,2.083s2.7061-0.6943,3.9438-2.083c1.2363-1.3887,2.3203-3.2783,3.248-5.6709
			c0.9282-2.3926,1.6621-5.209,2.2041-8.4502c0.54-3.2412,0.812-6.7139,0.812-10.418c0-3.625-0.272-7.0596-0.812-10.3008
			c-0.542-3.2402-1.2759-6.0576-2.2041-8.4502c-0.9277-2.3926-2.0117-4.2822-3.248-5.6709
			C1149.8135,58.7021,1148.4995,58.0068,1147.1074,58.0068z"/>
	</g>
</g>
</svg>
