<?xml version="1.0" encoding="iso-8859-1"?>
<!-- Generator: Adobe Illustrator 30.1.0, SVG Export Plug-In . SVG Version: 9.03 Build 0)  -->
<svg version="1.1" id="Layer_1" xmlns="http://www.w3.org/2000/svg" xmlns:xlink="http://www.w3.org/1999/xlink" x="0px" y="0px"
	 viewBox="0 0 1193.2 229" enable-background="new 0 0 1193.2 229" xml:space="preserve">
<g>
	<g>
		<path fill="#1A1A2E" d="M281,209.7l-17.2-41.4c-0.5-1.1-1.3-1.7-2.4-1.7h-1.3c-1.2,0-2,0.6-2.4,1.7l-17.2,41.4
			c-0.6,1.5,0.1,2.5,1.6,2.5h0.8c1.2,0,2-0.6,2.4-1.7l3.4-8.4h24l3.4,8.4c0.5,1.1,1.3,1.7,2.4,1.7h0.9
			C281,212.3,281.6,211.2,281,209.7L281,209.7z M250.5,197.9l10.2-25.4l10.3,25.4H250.5z"/>
		<path fill="#1A1A2E" d="M303.2,175.9L303.2,175.9c-6-0.4-9,3.1-10.3,6.9v-4.5c0-1.4-0.7-2.1-2.1-2.1h-0.6c-1.3,0-2.1,0.8-2.1,2.2
			v31.7c0,1.4,0.7,2.2,2.1,2.2h0.6c1.3,0,2.1-0.8,2.1-2.2v-16.4c0-8.3,2.9-13.4,9.8-13c1.4,0,2.2-0.5,2.3-1.9l0.1-0.4
			C305.3,177,304.6,176,303.2,175.9z"/>
		<path fill="#1A1A2E" d="M328.1,208.6c-4.7,0-8.6-0.8-8.6-11.2v-17.1h8.7c1.3,0,2.1-0.7,2.1-2c0-1.3-0.7-2-2.1-2h-8.7v-5.4
			c0-1.5-0.9-2.2-2.3-1.9l-0.6,0.1c-1.2,0.3-1.8,1-1.8,2.4v4.8h-3.3c-1.2,0-1.8,0.6-1.8,2s0.7,2,2.1,2h3.1v17.4
			c0,11.1,3.6,15.1,12,15.1l0,0c0.5,0,1.1,0,1.7-0.1c1.5-0.2,2-1,1.9-2.4C330.2,209,329.4,208.6,328.1,208.6z"/>
		<path fill="#1A1A2E" d="M395.8,187.8H380c-1.3,0-2.1,0.8-2.1,2.1v0.2c0,1.4,0.7,2.2,2.1,2.2h12.9c-0.3,10.3-5.9,15.9-15.1,15.9
			c-9.5,0-15.5-7.3-15.5-18.9c0-11.4,6.2-18.8,15.6-18.8c5.4,0,9.3,1.9,12,5.8c0.8,1.1,1.5,1.5,2.7,1.2l0.7-0.2
			c1.4-0.4,2-1.5,1.2-2.8c-3.4-5.7-9.2-8.5-16.7-8.5c-12.1,0-20.3,9.5-20.3,23.4c0,14.2,7.9,23.4,20.2,23.4l0,0
			c12.5,0,20.3-8.4,20.3-22.1v-1.1C397.9,188.4,397.1,187.8,395.8,187.8z"/>
		<path fill="#1A1A2E" d="M410.7,164.5h-0.6c-1.3,0-2.1,0.8-2.1,2.2v43.4c0,1.4,0.7,2.2,2.1,2.2h0.6c1.3,0,2.1-0.8,2.1-2.2v-43.4
			C412.8,165.3,412,164.5,410.7,164.5z"/>
		<path fill="#1A1A2E" d="M454.4,176.2h-0.6c-1.3,0-2.1,0.8-2.1,2.2v6.1c-2.2-6-7.3-9-13.2-9c-8.5,0-16.1,6-16.1,18.7
			c0,12.8,7.7,18.8,16.2,18.8v0c5.8,0,11-3,13.1-9v5.9c0,1.4,0.7,2.2,2.1,2.2h0.6c1.3,0,2.1-0.8,2.1-2.2v-31.6
			C456.4,177,455.7,176.2,454.4,176.2z M439.5,208.7c-7.5,0-12.4-5.5-12.4-14.4c0-8.9,4.9-14.3,12.3-14.3c7.4,0,12.4,5.5,12.4,14.3
			C451.8,203.2,446.9,208.7,439.5,208.7z"/>
		<path fill="#1A1A2E" d="M472.1,185.5c0-3.5,3.6-5.6,8.9-5.6c3.6,0,6.7,1.4,9,3.6c1,0.8,1.7,1.2,2.8,0.7l0.4-0.2
			c1.3-0.5,1.6-1.7,0.7-2.8c-2.9-3.4-8-5.6-13-5.6c-7.6,0-13.5,3.9-13.5,10.1c0,13.8,23.7,6.9,23.7,16.4c0,4-3.7,6.4-9.7,6.4
			c-4.3,0-8.3-1.6-10.9-4.6c-1.1-1.1-1.8-1.2-2.8-0.8l-0.5,0.2c-1.4,0.5-1.7,1.6-0.9,2.8c2.9,4.2,8.8,6.9,15,6.9
			c8.6,0,14.4-4.4,14.4-10.9C495.9,187.9,472.1,194.9,472.1,185.5z"/>
		<path fill="#1A1A2E" d="M508.8,185.5c0-3.5,3.6-5.6,8.9-5.6c3.6,0,6.7,1.4,9,3.6c1,0.8,1.7,1.2,2.8,0.7l0.4-0.2
			c1.3-0.5,1.6-1.7,0.7-2.8c-2.9-3.4-8-5.6-13-5.6c-7.6,0-13.5,3.9-13.5,10.1c0,13.8,23.7,6.9,23.7,16.4c0,4-3.7,6.4-9.7,6.4
			c-4.3,0-8.3-1.6-10.9-4.6c-1.1-1.1-1.8-1.2-2.8-0.8l-0.5,0.2c-1.4,0.5-1.7,1.6-0.9,2.8c2.9,4.2,8.8,6.9,15,6.9
			c8.6,0,14.4-4.4,14.4-10.9C532.6,187.9,508.8,194.9,508.8,185.5z"/>
		<path fill="#1A1A2E" d="M586.7,166.7h-26.1c-1.3,0-2.1,0.8-2.1,2.2v0.3c0,1.4,0.7,2.2,2.1,2.2h10.6v38.7c0,1.4,0.7,2.2,2.1,2.2h0
			h0.7c1.3,0,2.1-0.8,2.1-2.2v-38.7h10.6c1.3,0,2.1-0.8,2.1-2.2v-0.3C588.7,167.4,588,166.7,586.7,166.7z"/>
		<path fill="#1A1A2E" d="M607.9,175.9L607.9,175.9c-6-0.4-9,3.1-10.3,6.9v-4.5c0-1.4-0.7-2.1-2.1-2.1H595c-1.3,0-2.1,0.8-2.1,2.2
			v31.7c0,1.4,0.7,2.2,2.1,2.2h0.6c1.3,0,2.1-0.8,2.1-2.2v-16.4c0-8.3,2.9-13.4,9.8-13c1.4,0,2.2-0.5,2.3-1.9l0.1-0.4
			C610,177,609.3,176,607.9,175.9z"/>
		<path fill="#1A1A2E" d="M645.9,176.2h-0.6c-1.3,0-2.1,0.8-2.1,2.2v6.1c-2.2-6-7.3-9-13.2-9c-8.5,0-16.1,6-16.1,18.7
			c0,12.8,7.7,18.8,16.2,18.8v0c5.8,0,11-3,13.1-9v5.9c0,1.4,0.7,2.2,2.1,2.2h0.6c1.3,0,2.1-0.8,2.1-2.2v-31.6
			C648,177,647.2,176.2,645.9,176.2z M631,208.7c-7.5,0-12.4-5.5-12.4-14.4c0-8.9,4.9-14.3,12.3-14.3c7.4,0,12.4,5.5,12.4,14.3
			C643.3,203.2,638.4,208.7,631,208.7z"/>
		<path fill="#1A1A2E" d="M675.7,175.6L675.7,175.6c-6.2,0-10.2,3.6-11.7,8.3v-5.6c0-1.4-0.7-2.2-2.1-2.2h-0.6
			c-1.3,0-2.1,0.8-2.1,2.2v31.7c0,1.4,0.7,2.2,2.1,2.2h0.6c1.3,0,2.1-0.8,2.1-2.2v-15.7c0-9,3.1-14.3,10.6-14.3
			c7.4,0,10.7,4.3,10.7,13.2v16.8c0,1.4,0.7,2.2,2.1,2.2h0.6c1.3,0,2.1-0.8,2.1-2.2V193C690,181.6,685.4,175.6,675.7,175.6z"/>
		<path fill="#1A1A2E" d="M704.3,185.5c0-3.5,3.6-5.6,8.9-5.6c3.6,0,6.7,1.4,9,3.6c1,0.8,1.7,1.2,2.8,0.7l0.4-0.2
			c1.3-0.5,1.6-1.7,0.7-2.8c-2.9-3.4-8-5.6-13-5.6c-7.6,0-13.5,3.9-13.5,10.1c0,13.8,23.7,6.9,23.7,16.4c0,4-3.7,6.4-9.7,6.4
			c-4.3,0-8.3-1.6-10.9-4.6c-1.1-1.1-1.8-1.2-2.8-0.8l-0.5,0.2c-1.4,0.5-1.7,1.6-0.9,2.8c2.9,4.2,8.8,6.9,15,6.9
			c8.6,0,14.4-4.4,14.4-10.9C728.1,187.9,704.3,194.9,704.3,185.5z"/>
		<path fill="#1A1A2E" d="M752.7,163.8c-1.1-0.1-2.2-0.2-3.3-0.2c-7.3,0-11,3.7-11,11.1v1.6h-2.7c-1.3,0-2.1,0.7-2.1,2
			c0,1.3,0.7,2,2.1,2h2.7v29.8c0,1.4,0.7,2.2,2.1,2.2l0,0h0.6c1.3,0,2.1-0.8,2.1-2.2v-29.8h8c1.4,0,2.1-0.7,2.1-2c0-1.3-0.7-2-2.1-2
			h-8v-1.5c0-4.7,2.3-7,7-7c0.8,0,1.4,0,2.1,0.1c1.4,0.1,1.9-0.4,2.2-1.8C754.7,164.8,754.1,164,752.7,163.8z"/>
		<path fill="#1A1A2E" d="M775.3,175.5c-8.6,0-17,5.7-17,18.7c0,13.1,8.4,18.8,17.1,18.8c8.6,0,17-5.7,17-18.8
			C792.4,181.3,783.9,175.5,775.3,175.5z M775.4,208.7c-7.5,0-12.4-5.5-12.4-14.4c0-8.9,4.9-14.3,12.3-14.3s12.4,5.5,12.4,14.3
			C787.7,203.2,782.8,208.7,775.4,208.7z"/>
		<path fill="#1A1A2E" d="M817,175.9L817,175.9c-6-0.4-9,3.1-10.3,6.9v-4.5c0-1.4-0.7-2.1-2.1-2.1h-0.6c-1.3,0-2.1,0.8-2.1,2.2v31.7
			c0,1.4,0.7,2.2,2.1,2.2h0.6c1.3,0,2.1-0.8,2.1-2.2v-16.4c0-8.3,2.9-13.4,9.8-13c1.4,0,2.2-0.5,2.3-1.9l0.1-0.4
			C819.1,177,818.4,176,817,175.9z"/>
		<path fill="#1A1A2E" d="M865.6,175.5L865.6,175.5c-6.7,0-11.1,3.8-12.6,9.6c-1.7-6.6-4.7-9.5-11-9.5c-5.7,0-9.6,3.7-10.8,8.5v-5.7
			c0-1.4-0.7-2.2-2.1-2.2h-0.6c-1.3,0-2.1,0.8-2.1,2.2v31.7c0,1.4,0.7,2.2,2.1,2.2h0.6c1.3,0,2.1-0.8,2.1-2.2v-14.5
			c0-10.4,2.8-15.5,9.7-15.5c6.7,0,8.8,4.5,8.8,14.8v15.2c0,1.4,0.7,2.2,2.1,2.2h0.6c1.3,0,2.1-0.8,2.1-2.2v-15.3
			c0-10.2,2.8-14.8,9.6-14.8c6.8,0,9.2,4.6,9.2,14.8v15.3c0,1.4,0.7,2.2,2.1,2.2h0.6c1.3,0,2.1-0.8,2.1-2.2v-15.6
			C878,181.6,874.6,175.5,865.6,175.5z"/>
		<path fill="#1A1A2E" d="M903.9,175.5c-10.1,0-17.1,7.6-17.1,18.7c0,11.3,6.9,18.7,17.4,18.7l0,0c6.6,0,11.4-2.6,14.4-7.5
			c0.8-1.2,0.4-2.1-1-2.5l-0.6-0.2c-1.2-0.4-1.9,0.3-2.7,1.2c-2.4,3.1-5.4,4.7-10.2,4.7c-7.8,0-12.6-5-12.8-13.4h26.8
			c1.3,0,2.1-0.7,2.1-2.2C920.2,182.5,913.8,175.5,903.9,175.5z M891.7,191c0.8-7.1,5.5-11.3,12.3-11.3c7,0,11.5,4.4,11.9,11.3
			H891.7z"/>
		<path fill="#1A1A2E" d="M960.8,164.5h-0.6c-1.3,0-2.1,0.8-2.1,2.2v17.8c-2.1-6-7.3-9-13.2-9c-8.5,0-16.1,6-16.1,18.7
			c0,12.8,7.7,18.8,16.2,18.8v0c5.8,0,11-3,13.1-9v5.9c0,1.4,0.7,2.2,2.1,2.2h0.6c1.3,0,2.1-0.8,2.1-2.2v-43.3
			C962.9,165.3,962.1,164.5,960.8,164.5z M946,208.7c-7.5,0-12.4-5.5-12.4-14.4c0-8.9,4.9-14.3,12.3-14.3c7.5,0,12.4,5.5,12.4,14.3
			C958.3,203.2,953.4,208.7,946,208.7z"/>
	</g>
	<g>
		<path fill="#1A1A2E" d="M124.5,101.5c0.6,2.2,1.2,3.9,1.8,5.1c0.6,1.2,1.2,2.2,1.7,2.8c0.6,0.6,1.1,1.1,1.7,1.3
			c0.6,0.2,1.3,0.3,2.1,0.3v2.5h-34v-2.6c1.2-0.1,2-0.3,2.5-0.6c0.4-0.3,0.6-0.9,0.6-1.5c0-0.7-0.1-1.4-0.4-2.3
			c-0.3-0.8-0.6-1.8-0.9-2.9l-6.6-22.7H68.9c-0.3,1.2-0.7,2.4-1,3.6c-0.3,1.2-0.7,2.3-1.2,3.6l-0.5,1.8c-1.3,4-2.8,8.7-4.6,13.9
			c-1.8,5.2-3.8,10.3-6.2,15.2c-2.4,4.9-5.1,9.3-8.1,13.2c-3.1,3.9-6.5,6.7-10.3,8.3c-2.9,1.2-5.6,1.8-8,1.8c-2.2,0-4.1-0.4-5.7-1.2
			c-1.7-0.8-3.1-1.8-4.2-3.1c-1.1-1.3-2-2.8-2.5-4.5c-0.6-1.7-0.8-3.4-0.8-5.2c0-2.2,0.4-4.4,1.2-6.5l1.4-0.4
			c0.9,0.7,2.2,1.2,3.7,1.6c1.5,0.3,2.9,0.5,4.3,0.5c4.4,0,8.3-1.1,11.7-3.2c3.4-2.2,6.4-4.9,9-8.4c2.6-3.4,4.8-7.3,6.6-11.5
			c1.8-4.2,3.4-8.3,4.7-12.4l18.9-60.6c-0.4-0.7-0.9-1.2-1.5-1.5c-0.6-0.3-1.4-0.5-2.3-0.7v-2.5c1.7,0,3.7-0.2,6-0.6
			c2.3-0.4,4.6-1,6.9-1.7c2.3-0.7,4.5-1.4,6.6-2.2c2.1-0.8,3.7-1.5,4.9-2.3l2.1,1.5L124.5,101.5z M91.3,74.8l-9.9-33.7L70.8,74.8
			H91.3z"/>
		<path fill="#1A1A2E" d="M192.8,105.2c0.2,1.9,0.7,3.4,1.6,4.5c0.9,1.1,1.8,1.6,2.7,1.6v2.1h-27.4v-2.1c1,0,2-0.7,3-2
			c1-1.3,1.5-3.1,1.5-5.3V72c0-3.6-0.5-6-1.6-7.5c-1.1-1.4-2.4-2.1-3.9-2.1c-1.2,0-2.4,0.4-3.7,1.1c-1.3,0.7-2.5,1.7-3.5,2.8
			c-1.1,1.2-2,2.5-2.7,3.9c-0.7,1.4-1,2.8-1,4.2v30.2c0,2,0.5,3.6,1.5,4.9c1,1.2,1.9,1.9,2.8,1.9v2.1h-27.5v-2.1c1,0,2-0.7,3-2
			c1-1.3,1.4-3.1,1.4-5.3V66.7c0-2.2-0.5-4-1.4-5.3c-0.9-1.3-1.9-1.9-2.9-1.9v-2.1h1.7c3.5,0,7-0.5,10.6-1.5c3.6-1,6.6-2.1,9-3.4
			l1.7,1.3l0,10c2.5-3.2,5.4-5.7,8.7-7.4c3.3-1.7,6.6-2.5,9.8-2.5c2.2,0,4.3,0.4,6.3,1.1c2,0.7,3.8,1.9,5.4,3.4
			c1.5,1.5,2.8,3.5,3.7,5.8c0.9,2.3,1.4,5,1.4,8.1c0,5.5,0,11-0.1,16.5C192.8,94.5,192.8,99.9,192.8,105.2z"/>
		<path fill="#1A1A2E" d="M271.4,24c0.5,0,0.9,0,1.3,0c0.4,0,0.8,0,1.2,0.1c2.3,0.2,4.4,0.9,6.2,2c1.8,1.1,3.4,2.4,4.6,3.9
			c1.2,1.5,2.1,3.2,2.7,5.1c0.6,1.9,0.8,3.7,0.6,5.4c-0.3,3-1.7,5.5-4.2,7.5c-1.3-2.1-3.2-3.6-5.7-4.6c-2.5-1-4.8-1.6-6.9-1.8
			c-0.4,0-0.7-0.1-1-0.1c-0.3,0-0.7,0-1.1,0c-2.9-0.1-5.7,0.4-8.4,1.4c-2.7,1-5.3,2.3-7.8,4c-2.5,1.7-7.6,5.7-10.9,10.3
			c3.9,1.9,7,4.5,9.3,7.7c2.4,3.2,3.5,6.7,3.5,10.6c0,2.9-0.7,5.7-2.1,8.3c-1.4,2.6-3.3,4.9-5.7,6.8c-2.4,1.9-5.3,3.5-8.5,4.6
			c-3.2,1.1-6.7,1.7-10.4,1.7c-3,0-5.9-0.4-8.6-1.2c-2.7-0.8-5.2-1.8-7.4-3.1c-0.5,0.7-0.7,1.4-0.7,2.1c0,1.4,1.2,2.5,3.5,3.4
			c1.5,0.5,3.3,1.1,5.4,1.6c2.1,0.5,4.4,1,6.8,1.6c2.4,0.5,4.9,1.1,7.5,1.7c2.6,0.6,5.1,1.3,7.6,2c6.5,1.9,11.2,4.4,14,7.3
			c2.8,2.9,4.2,6,4.2,9.3v0.7c-0.2,3.6-1.6,6.8-4.2,9.6c-2.6,2.7-5.8,5-9.7,6.9c-3.9,1.9-8.2,3.2-12.9,4.2
			c-4.7,0.9-9.4,1.4-13.9,1.4c-3.2,0-6.3-0.2-9.2-0.7c-2.9-0.5-5.5-1.2-7.7-2.2c-2.9-1.3-4.9-2.9-6.1-4.6c-1.2-1.8-1.9-3.6-1.9-5.6
			c0-1.6,0.4-3.2,1.2-4.8c0.8-1.6,1.9-3,3.4-4.2c1.4-1.2,3.2-2.2,5.2-3c2-0.8,4.2-1.2,6.6-1.2c1.9,0,4.1,0.3,6.4,0.9
			c-2.8,2.3-4.2,4.7-4.2,7.2c0,1.4,0.4,2.7,1.3,3.9c0.9,1.2,2,2.3,3.5,3.2c1.5,0.9,3.2,1.6,5.2,2.1c2,0.5,4.1,0.8,6.3,0.8
			c0.9,0,1.7,0,2.6-0.1c0.9-0.1,1.7-0.2,2.6-0.3c2.8-0.5,4.9-1.4,6.4-2.5c1.5-1.1,2.2-2.3,2.2-3.7c0-1.5-0.9-3.1-2.6-4.9
			c-1.7-1.8-4.6-3.4-8.6-4.7c-1.8-0.5-3.7-1.1-5.7-1.6c-2-0.5-4-1.1-6-1.6c-2-0.5-3.8-1-5.6-1.5c-1.7-0.5-3.2-0.9-4.5-1.4
			c-3.8-1.3-6.5-2.9-8.2-4.6c-1.7-1.8-2.6-3.7-2.6-5.7c0-2.2,0.9-4.3,2.7-6.5c1.8-2.2,4.3-4.2,7.4-6.1c-2.6-2-4.7-4.3-6.1-7
			c-1.5-2.6-2.2-5.5-2.2-8.5c0-2.9,0.7-5.7,2.1-8.3c1.4-2.6,3.3-4.9,5.7-6.8c2.4-1.9,5.3-3.5,8.5-4.6c3.2-1.1,6.7-1.7,10.4-1.7
			c3.2,0,6,0.4,8.6,1.2c1.5-2.9,3.1-5.6,6.1-9.4c2.9-3.8,6-7.2,9.1-10.4c3.2-3.2,6.4-5.8,9.7-7.9C264.9,25.3,268.2,24.2,271.4,24z
			 M233.3,91.5c1.5-0.5,2.7-1.7,3.6-3.6c0.9-1.8,1.3-4.1,1.3-6.8c0-2.8-0.5-5.8-1.4-8.8c-0.6-2.1-1.4-4-2.4-5.7
			c-1-1.7-2-3.1-3.1-4.3c-1.1-1.2-2.2-2.1-3.4-2.8c-1.2-0.7-2.4-1-3.5-1c-0.4,0-0.9,0.1-1.5,0.2c-1.5,0.5-2.7,1.7-3.6,3.6
			c-0.9,1.8-1.3,4.1-1.3,6.8c0,2.8,0.5,5.7,1.4,8.8c1.2,4.1,3,7.4,5.4,10c2.4,2.6,4.7,3.9,7,3.9C232.1,91.8,232.6,91.7,233.3,91.5z"
			/>
		<path fill="#1A1A2E" d="M303.7,102.8c3.1-0.4,5.7-1.4,7.9-3c2.2-1.6,3.8-3.4,5-5.3l2.1,0.7c-1.2,2.8-2.6,5.4-4.4,7.7
			c-1.7,2.4-3.8,4.4-6.2,6.1c-2.4,1.7-5,3.1-7.9,4.1c-2.9,1-6.1,1.5-9.6,1.5c-4.2,0-8.1-0.8-11.8-2.4c-3.7-1.6-6.9-3.8-9.6-6.7
			c-2.7-2.8-4.9-6.1-6.5-9.8c-1.6-3.7-2.4-7.7-2.4-11.8c0-4.2,0.8-8.1,2.4-11.8c1.6-3.7,3.8-7,6.5-9.8c2.7-2.8,6-5.1,9.6-6.7
			c3.7-1.7,7.6-2.5,11.8-2.5c4.2,0,8,0.8,11.6,2.5c3.6,1.7,6.6,3.9,9.2,6.7c2.6,2.8,4.6,6.1,6,9.8c1.5,3.7,2.2,7.7,2.2,11.8h-39.4
			c0.5,2.6,1.2,5,2.3,7.3c1.1,2.3,2.5,4.3,4.1,6.1c1.7,1.7,3.7,3.1,6,4.2c2.4,1,5.1,1.6,8.2,1.6c0.5,0,0.9,0,1.4-0.1
			C302.6,102.9,303.1,102.9,303.7,102.8z M300.5,79.9c-1.3-7.3-3.2-12.5-5.6-15.8c-2.4-3.3-4.8-4.9-7.3-4.9c-2.3,0-4.3,1.4-6,4.1
			c-1.7,2.7-2.6,6.7-2.6,11.8c0,1.5,0.1,3.2,0.3,4.9H300.5z"/>
		<path fill="#1A1A2E" d="M345.3,104.1c0,2.2,0.5,4,1.4,5.3c0.9,1.3,1.9,2,2.9,2v2.1h-27.5v-2.1c0.9,0,1.9-0.6,2.8-1.8
			c0.9-1.2,1.5-2.8,1.6-4.9V42.7c0-2.2-0.5-4-1.5-5.3c-1-1.3-2-2-3-2v-2.1c3.9,0,7.8-0.4,11.7-1.3c3.9-0.9,7.2-2,9.8-3.4l1.7,1.3
			V104.1z"/>
		<path fill="#1A1A2E" d="M416.9,105.9c-0.5,0.8-1.1,1.5-1.8,2.3c-0.7,0.7-1.3,1.4-1.9,2c-1.2,1.2-2.9,2.1-4.9,2.7
			c-2,0.6-4.2,0.9-6.4,0.9c-1.6,0-3.2-0.2-4.8-0.5c-1.5-0.3-2.9-0.9-4.1-1.7c-1.2-0.8-2.2-1.7-2.9-2.9c-0.7-1.2-1.1-2.6-1.1-4.2
			v-2.8c-1.3,2-2.9,3.8-4.6,5.5c-1.8,1.7-3.8,3-6,4.1c-3,1.4-6.1,2.1-9.2,2.1c-2.1,0-4.1-0.3-5.9-0.9c-1.9-0.6-3.5-1.5-4.9-2.8
			c-1.4-1.2-2.6-2.7-3.5-4.5c-0.9-1.8-1.3-3.8-1.3-6.1c0-1.7,0.3-3.4,0.9-5.2s1.5-3.4,2.7-4.9c1.2-1.5,2.7-2.9,4.5-4.2
			c1.8-1.3,4-2.3,6.6-3.1c2.1-0.6,4.3-1.2,6.5-1.6c2.2-0.5,4.3-1,6.3-1.6c2-0.6,3.7-1.4,5.1-2.4c1.4-1,2.4-2.4,3-4.2v-1.3
			c0-4.4-0.7-7.6-2-9.5c-1.3-1.9-2.8-2.8-4.5-2.8c-1.9,0-3.6,0.9-5.3,2.8c-1.7,1.9-2.7,4.3-2.9,7.2V69c0,1,0.2,2.1,0.5,3.4
			c0.3,1.3,0.9,2.1,1.6,2.6c-0.9,1.1-2,1.9-3.6,2.5c-1.5,0.6-3.2,0.9-5,0.9c-1.3,0-2.6-0.2-3.9-0.5c-1.3-0.3-2.4-0.9-3.4-1.6
			c-1-0.7-1.8-1.7-2.4-2.9c-0.6-1.2-0.9-2.6-0.9-4.3c0-2.5,0.7-4.7,2.1-6.7c1.4-2,3.2-3.7,5.5-5.2c2.3-1.4,4.9-2.5,7.8-3.3
			c2.9-0.8,5.9-1.2,9-1.2h0.9c3.2,0.1,6.3,0.5,9.3,1.2c3.1,0.7,5.8,1.9,8.1,3.5c2.4,1.6,4.3,3.7,5.7,6.3c1.5,2.6,2.2,5.8,2.2,9.6
			v30.7c0,1.1,0.3,1.9,0.9,2.3c0.6,0.5,1.3,0.7,2,0.7c0.9,0,1.7-0.2,2.6-0.7c0.9-0.5,1.6-1.1,2.1-2L416.9,105.9z M383.7,102.3
			c0.9-0.5,1.9-1.3,2.8-2.2c0.9-0.9,1.7-2.1,2.4-3.6V77.7c-2.4,1.5-4.9,3.4-7.6,5.5s-4.9,4.4-6.7,6.8c-1.5,2.2-2.2,4.3-2.2,6.5
			c0,2,0.6,3.7,1.8,5.1c1.2,1.4,2.8,2.1,4.8,2.1C380.5,103.7,382.1,103.2,383.7,102.3z"/>
		<path fill="#1A1A2E" d="M415.3,45.2c1.5-1.8,2.7-3.4,3.6-4.9c0.9-1.5,1.3-2.9,1.3-4.4c0-1.2-0.3-2.2-0.8-3.2
			c-0.3-0.6-0.7-1.2-1-1.6c-0.4-0.5-0.8-0.9-1.1-1.4c-0.3-0.5-0.7-0.9-0.9-1.5c-0.3-0.5-0.4-1.2-0.5-2v-0.6c0-2.7,0.9-4.7,2.6-6.1
			c1.7-1.4,3.7-2,5.9-2c2.1,0,4,0.7,5.7,2c1.7,1.4,2.6,3.5,2.6,6.3c0,2.1-0.5,4.2-1.4,6.2c-0.9,2-2.2,4-3.7,5.7
			c-1.5,1.8-3.3,3.4-5.3,4.8c-2,1.4-4,2.6-6.1,3.4L415.3,45.2z"/>
		<path fill="#1A1A2E" d="M472.1,81c3,2,5.2,4.3,6.7,7c1.4,2.6,2.1,5.3,2.1,8c0,2.7-0.7,5.4-2,8c-1.4,2.6-3.3,5-5.7,7
			c-2.6,2.1-5.7,3.7-9.3,4.7c-3.6,1-7.2,1.6-11,1.6c-3.1,0-6.1-0.3-9-1s-5.5-1.7-7.8-3c-2.3-1.4-4.1-3-5.5-5c-1.4-2-2-4.2-2-6.8
			c0-2,0.4-3.8,1.2-5.3c0.8-1.5,1.8-2.7,3.1-3.7c1.3-1,2.7-1.7,4.4-2.2c1.6-0.5,3.2-0.8,4.9-0.8c3.1,0,5.8,0.8,8,2.3v0.9
			c-1.4,1.2-2.4,2.6-3,3.9c-0.6,1.4-0.9,2.8-0.9,4.3c0,2.5,0.8,4.7,2.5,6.6c1.7,1.9,4,3,7,3.4c0.4,0.1,1,0.1,1.7,0.1
			c2.4,0,4.5-0.6,6.4-1.8c1.9-1.2,2.8-3,2.8-5.5c0-2.2-0.9-4.3-2.7-6c-1.8-1.8-4.1-3.4-6.8-5c-2.7-1.5-5.6-3.1-8.8-4.6
			c-3.1-1.5-6.1-3.2-8.8-5c-2.7-1.8-4.9-3.8-6.7-6.1c-1.8-2.3-2.7-4.9-2.7-7.9s0.7-5.6,2.2-7.8c1.5-2.2,3.3-4,5.6-5.5
			c2.3-1.4,4.8-2.5,7.6-3.2c2.8-0.7,5.5-1.1,8.2-1.1h1.5c3.9,0.2,7.6,1.1,11.3,2.5c3.7,1.4,7.1,3.3,10.4,5.5l-1.7,14.2l-2.1-0.1
			c-1-2-2.1-4.1-3.4-6.3c-1.2-2.2-2.7-4.1-4.3-5.9c-1.9-2.2-3.9-3.7-5.9-4.6c-2-0.9-3.8-1.3-5.6-1.3c-2,0-3.7,0.5-5,1.6
			c-1.4,1-2,2.4-2,4.1c0,1.3,0.5,2.8,1.5,4.3c1,1.6,2.7,3.2,5,4.7c2.8,1.9,5.8,3.6,9.2,5.3C465.9,77.1,469.1,79,472.1,81z"/>
		<path fill="#1A1A2E" d="M596.8,75.2v2.7c-1.2,0-2.2,0.8-2.9,2.4c-0.7,1.6-1.1,3.9-1.1,6.9v38.3h-3.6c-0.8-2.1-1.7-4.2-2.9-6.2
			c-1.2-2-2.3-3.7-3.5-4.9c-1.3,1.5-2.9,2.9-5,4.2c-2,1.3-4.2,2.4-6.6,3.4c-2.4,1-4.8,1.7-7.3,2.2c-2.5,0.5-4.8,0.8-7,0.8
			c-7.4,0-13.9-1.5-19.5-4.4c-5.6-3-10.3-6.9-14-11.8c-3.7-4.9-6.6-10.5-8.5-16.7c-1.9-6.2-2.8-12.7-2.8-19.2
			c0-4.8,0.5-9.5,1.5-14.2c1-4.7,2.5-9.2,4.5-13.4c2-4.2,4.6-8.1,7.6-11.7c3.1-3.5,6.6-6.5,10.6-9c2.8-1.6,5.7-2.9,9-3.9
			c3.2-1,6.6-1.6,10.3-2c0.5-0.1,1-0.1,1.5-0.1c0.5,0,1.1,0,1.7,0c2.7,0,5.4,0.2,8.3,0.7c2.9,0.5,5.7,1.1,8.5,1.9
			c2.8,0.8,5.3,1.8,7.7,2.9c2.4,1.1,4.5,2.3,6.3,3.5l-4.3,27.6l-2.2,0.6l-3-6.3c-3.9-8.2-8.1-14.5-12.8-18.8
			c-4.6-4.3-9.1-6.5-13.3-6.5c-4.3,0-8.1,2.4-11.3,7.1c-3.2,4.7-5.4,12.2-6.4,22.4c-0.2,1.5-0.3,3.1-0.4,4.6
			c-0.1,1.6-0.1,3.2-0.1,4.8c0,5.6,0.5,11.3,1.4,16.9c0.9,5.7,2.3,10.9,4.1,15.8c1.8,4.9,4,9.1,6.6,12.8c2.6,3.7,5.6,6.3,9,7.9
			c0.9,0.5,1.7,0.8,2.5,0.9c0.8,0.1,1.6,0.2,2.4,0.2c2.8,0,5.1-1.2,7-3.6c1.9-2.4,2.9-6,2.9-10.7v-16c0-1.4-0.3-2.7-1-3.9
			c-0.6-1.2-1.4-2.2-2.3-2.9c-0.9-0.8-1.7-1.4-2.6-1.8c-0.9-0.4-1.7-0.6-2.3-0.6v-2.7L596.8,75.2L596.8,75.2z"/>
		<path fill="#1A1A2E" d="M625.5,104.1c0,2.2,0.5,4,1.4,5.3c0.9,1.3,1.9,2,2.9,2v2.1h-27.5v-2.1c0.9,0,1.9-0.6,2.8-1.8
			c0.9-1.2,1.5-2.8,1.6-4.9V42.7c0-2.2-0.5-4-1.5-5.3c-1-1.3-2-2-3-2v-2.1c3.9,0,7.8-0.4,11.7-1.3c3.9-0.9,7.2-2,9.8-3.4l1.7,1.3
			V104.1z"/>
		<path fill="#1A1A2E" d="M697.1,105.9c-0.5,0.8-1.1,1.5-1.8,2.3c-0.7,0.7-1.3,1.4-1.9,2c-1.2,1.2-2.9,2.1-4.9,2.7
			c-2,0.6-4.2,0.9-6.4,0.9c-1.6,0-3.2-0.2-4.8-0.5c-1.5-0.3-2.9-0.9-4.1-1.7c-1.2-0.8-2.2-1.7-2.9-2.9c-0.7-1.2-1.1-2.6-1.1-4.2
			v-2.8c-1.3,2-2.9,3.8-4.6,5.5c-1.8,1.7-3.8,3-6,4.1c-3,1.4-6.1,2.1-9.2,2.1c-2.1,0-4.1-0.3-5.9-0.9c-1.9-0.6-3.5-1.5-4.9-2.8
			c-1.4-1.2-2.6-2.7-3.5-4.5c-0.9-1.8-1.3-3.8-1.3-6.1c0-1.7,0.3-3.4,0.9-5.2s1.5-3.4,2.7-4.9c1.2-1.5,2.7-2.9,4.5-4.2
			c1.8-1.3,4-2.3,6.6-3.1c2.1-0.6,4.3-1.2,6.5-1.6c2.2-0.5,4.3-1,6.3-1.6c2-0.6,3.7-1.4,5.1-2.4c1.4-1,2.4-2.4,3-4.2v-1.3
			c0-4.4-0.7-7.6-2-9.5c-1.3-1.9-2.8-2.8-4.5-2.8c-1.9,0-3.6,0.9-5.3,2.8c-1.7,1.9-2.7,4.3-2.9,7.2V69c0,1,0.2,2.1,0.5,3.4
			c0.3,1.3,0.9,2.1,1.6,2.6c-0.9,1.1-2,1.9-3.6,2.5c-1.5,0.6-3.2,0.9-5,0.9c-1.3,0-2.6-0.2-3.9-0.5c-1.3-0.3-2.4-0.9-3.4-1.6
			c-1-0.7-1.8-1.7-2.4-2.9c-0.6-1.2-0.9-2.6-0.9-4.3c0-2.5,0.7-4.7,2.1-6.7c1.4-2,3.2-3.7,5.5-5.2c2.3-1.4,4.9-2.5,7.8-3.3
			c2.9-0.8,5.9-1.2,9-1.2h0.9c3.2,0.1,6.3,0.5,9.3,1.2c3.1,0.7,5.8,1.9,8.1,3.5c2.4,1.6,4.3,3.7,5.7,6.3c1.5,2.6,2.2,5.8,2.2,9.6
			v30.7c0,1.1,0.3,1.9,0.9,2.3c0.6,0.5,1.3,0.7,2,0.7c0.9,0,1.7-0.2,2.6-0.7c0.9-0.5,1.6-1.1,2.1-2L697.1,105.9z M663.9,102.3
			c0.9-0.5,1.9-1.3,2.8-2.2c0.9-0.9,1.7-2.1,2.4-3.6V77.7c-2.4,1.5-4.9,3.4-7.6,5.5s-4.9,4.4-6.7,6.8c-1.5,2.2-2.2,4.3-2.2,6.5
			c0,2,0.6,3.7,1.8,5.1c1.2,1.4,2.8,2.1,4.8,2.1C660.7,103.7,662.3,103.2,663.9,102.3z"/>
		<path fill="#1A1A2E" d="M740.3,81c3,2,5.2,4.3,6.7,7c1.4,2.6,2.1,5.3,2.1,8c0,2.7-0.7,5.4-2,8c-1.4,2.6-3.3,5-5.7,7
			c-2.6,2.1-5.7,3.7-9.3,4.7c-3.6,1-7.2,1.6-11,1.6c-3.1,0-6.1-0.3-9-1s-5.5-1.7-7.8-3c-2.3-1.4-4.1-3-5.5-5c-1.4-2-2-4.2-2-6.8
			c0-2,0.4-3.8,1.2-5.3c0.8-1.5,1.8-2.7,3.1-3.7c1.3-1,2.7-1.7,4.4-2.2c1.6-0.5,3.2-0.8,4.9-0.8c3.1,0,5.8,0.8,8,2.3v0.9
			c-1.4,1.2-2.4,2.6-3,3.9c-0.6,1.4-0.9,2.8-0.9,4.3c0,2.5,0.8,4.7,2.5,6.6c1.7,1.9,4,3,7,3.4c0.4,0.1,1,0.1,1.7,0.1
			c2.4,0,4.5-0.6,6.4-1.8c1.9-1.2,2.8-3,2.8-5.5c0-2.2-0.9-4.3-2.7-6c-1.8-1.8-4.1-3.4-6.8-5c-2.7-1.5-5.6-3.1-8.8-4.6
			c-3.1-1.5-6.1-3.2-8.8-5c-2.7-1.8-4.9-3.8-6.7-6.1c-1.8-2.3-2.7-4.9-2.7-7.9s0.7-5.6,2.2-7.8c1.5-2.2,3.3-4,5.6-5.5
			c2.3-1.4,4.8-2.5,7.6-3.2c2.8-0.7,5.5-1.1,8.2-1.1h1.5c3.9,0.2,7.6,1.1,11.3,2.5c3.7,1.4,7.1,3.3,10.4,5.5l-1.7,14.2l-2.1-0.1
			c-1-2-2.1-4.1-3.4-6.3c-1.2-2.2-2.7-4.1-4.3-5.9c-1.9-2.2-3.9-3.7-5.9-4.6c-2-0.9-3.8-1.3-5.6-1.3c-2,0-3.7,0.5-5,1.6
			c-1.4,1-2,2.4-2,4.1c0,1.3,0.5,2.8,1.5,4.3c1,1.6,2.7,3.2,5,4.7c2.8,1.9,5.8,3.6,9.2,5.3C734.2,77.1,737.3,79,740.3,81z"/>
		<path fill="#1A1A2E" d="M795.3,81c3,2,5.2,4.3,6.7,7c1.4,2.6,2.1,5.3,2.1,8c0,2.7-0.7,5.4-2,8c-1.4,2.6-3.3,5-5.7,7
			c-2.6,2.1-5.7,3.7-9.3,4.7c-3.6,1-7.2,1.6-11,1.6c-3.1,0-6.1-0.3-9-1s-5.5-1.7-7.8-3c-2.3-1.4-4.1-3-5.5-5c-1.4-2-2-4.2-2-6.8
			c0-2,0.4-3.8,1.2-5.3c0.8-1.5,1.8-2.7,3.1-3.7c1.3-1,2.7-1.7,4.4-2.2c1.6-0.5,3.2-0.8,4.9-0.8c3.1,0,5.8,0.8,8,2.3v0.9
			c-1.4,1.2-2.4,2.6-3,3.9c-0.6,1.4-0.9,2.8-0.9,4.3c0,2.5,0.8,4.7,2.5,6.6c1.7,1.9,4,3,7,3.4c0.4,0.1,1,0.1,1.7,0.1
			c2.4,0,4.5-0.6,6.4-1.8c1.9-1.2,2.8-3,2.8-5.5c0-2.2-0.9-4.3-2.7-6c-1.8-1.8-4.1-3.4-6.8-5c-2.7-1.5-5.6-3.1-8.8-4.6
			c-3.1-1.5-6.1-3.2-8.8-5c-2.7-1.8-4.9-3.8-6.7-6.1c-1.8-2.3-2.7-4.9-2.7-7.9s0.7-5.6,2.2-7.8c1.5-2.2,3.3-4,5.6-5.5
			c2.3-1.4,4.8-2.5,7.6-3.2c2.8-0.7,5.5-1.1,8.2-1.1h1.5c3.9,0.2,7.6,1.1,11.3,2.5c3.7,1.4,7.1,3.3,10.4,5.5l-1.7,14.2l-2.1-0.1
			c-1-2-2.1-4.1-3.4-6.3c-1.2-2.2-2.7-4.1-4.3-5.9c-1.9-2.2-3.9-3.7-5.9-4.6c-2-0.9-3.8-1.3-5.6-1.3c-2,0-3.7,0.5-5,1.6
			c-1.4,1-2,2.4-2,4.1c0,1.3,0.5,2.8,1.5,4.3c1,1.6,2.7,3.2,5,4.7c2.8,1.9,5.8,3.6,9.2,5.3C789.1,77.1,792.3,79,795.3,81z"/>
		<path fill="#1A1A2E" d="M868,41.4c1.9,2.2,4.2,4.3,6.8,6.3c2.6,2,5.3,4,8.1,5.9c2.8,1.9,5.7,3.9,8.6,5.9c2.9,2,5.6,4.1,8.2,6.3
			c2.6,2.2,4.9,4.6,7,7.1c2.1,2.5,3.8,5.3,5,8.3c1,2.3,1.6,4.5,2.1,6.7c0.4,2.1,0.6,4.3,0.6,6.3c0,4.9-1.1,9.4-3.3,13.5
			c-2.2,4.1-5.2,7.7-8.9,10.7c-3.7,3-8.1,5.3-13,7c-5,1.7-10.2,2.6-15.6,2.6c-5,0-10-0.8-15-2.3c-3.6-1.1-6.7-2.5-9.3-4.3
			c-2.6-1.8-4.7-3.7-6.4-5.9c-1.7-2.1-2.9-4.4-3.7-6.9c-0.8-2.4-1.2-4.9-1.2-7.3c0-3.1,0.6-6.1,1.7-9c1.1-2.9,2.8-5.5,4.8-7.8
			c2.1-2.3,4.6-4.1,7.5-5.5c3-1.4,6.2-2.1,9.8-2.1c2.7,0,5.5,0.4,8.5,1.3c2.1,0.7,4,1.6,5.9,2.7c1.8,1.1,3.5,2.5,4.8,4.2
			c1.4,1.7,2.4,3.5,3.2,5.7c0.8,2.1,1.2,4.4,1.2,6.9c0,1.3-0.1,2.7-0.3,4c-0.5,3.3-1.8,6.2-3.9,8.5c-2.1,2.4-4.9,3.7-8.5,3.9h-1.1
			c-2,0-3.9-0.4-5.8-1.3c-1.9-0.8-3.5-2.2-4.8-4c3.8-3.5,6.6-7,8.3-10.4c1.7-3.4,2.5-6.3,2.5-8.8c0-1.7-0.3-3.1-1-4.1
			c-0.7-1-1.6-1.7-2.7-2.1c-0.8-0.2-1.6-0.3-2.2-0.3c-1.9,0-3.7,0.6-5.4,1.8c-1.7,1.2-3.1,2.8-4.3,4.7c-1.2,2-2.2,4.2-2.9,6.6
			c-0.7,2.4-1.1,4.9-1.1,7.3c0,2.1,0.3,4.2,0.8,6.2c0.6,2,1.4,3.7,2.7,5.3c1.2,1.6,2.8,2.9,4.8,4c2,1.1,4.3,1.8,7.1,2
			c0.4,0.1,0.9,0.1,1.4,0.1c0.5,0,0.9,0,1.4,0c3.3,0,6.4-0.6,9.1-1.7c2.8-1.1,5.2-2.7,7.1-4.7c2-2,3.6-4.3,4.7-6.9
			c1.1-2.7,1.7-5.5,1.7-8.5c0-3.8-1-7.6-2.9-11.6c-1.9-4-5.1-7.8-9.4-11.6c-2.4-2-4.8-3.9-7.4-5.7c-2.6-1.8-5.1-3.6-7.6-5.4
			c-2.5-1.8-4.9-3.5-7.1-5.3c-2.3-1.7-4.2-3.5-5.9-5.3c-2.4-2.5-4.1-5-5.2-7.5c-1.1-2.5-1.7-4.9-1.7-7.3c0-3,0.8-5.7,2.4-8.4
			c1.6-2.6,3.7-4.9,6.5-6.8c2.7-1.9,5.9-3.4,9.6-4.5c3.7-1.1,7.6-1.7,11.7-1.7c0.4,0,0.9,0,1.3,0.1c0.4,0,0.9,0.1,1.3,0.1
			c5.1,0.3,9.6,1.1,13.6,2.5c4,1.4,7.3,3,10.1,4.7c-0.4,3.1-0.6,6.4-0.8,9.8c-0.2,3.4-0.3,6.8-0.4,10.1l-2.5,0.3
			c-3.3-8.3-6.9-14.3-10.9-17.8c-2-1.8-4-3-6.2-3.8c-2.1-0.8-4.1-1.2-6-1.2c-3.3,0-6,0.9-8.2,2.8c-2.2,1.8-3.3,4.2-3.3,7
			c0,1.3,0.3,2.7,0.9,4.2C865.7,38.5,866.7,39.9,868,41.4z"/>
		<path fill="#1A1A2E" d="M993.3,25.6c4.1,0.3,7.3,1.6,9.6,3.9c2.3,2.3,3.4,4.9,3.4,7.9c0,1.7-0.4,3.4-1.2,5c-0.8,1.7-2,3.3-3.6,4.8
			c-1.8-2.4-3.9-4.1-6.3-5.1c-2.4-1-5.1-1.5-8-1.5c-3.6,0-7.3,0.6-11.4,1.8c-4,1.2-8.1,2.6-12.1,4.2c-4.1,1.6-8,3.3-11.9,5
			c-3.9,1.7-7.4,3.2-10.6,4.2v50c0,1.1,0.3,1.9,0.8,2.3c0.5,0.5,1.2,0.7,2,0.7c0.9,0,1.7-0.2,2.6-0.8c0.9-0.5,1.6-1.2,2.1-2l1.6,1.5
			c-0.6,0.8-1.2,1.5-1.9,2.3c-0.6,0.7-1.3,1.4-2,2c-1.2,1.2-2.9,2-4.9,2.7c-2,0.6-4.2,0.9-6.4,0.9c-1.6,0-3.2-0.2-4.7-0.5
			c-1.5-0.3-2.9-0.9-4.1-1.7c-1.2-0.8-2.2-1.7-2.9-2.9c-0.7-1.2-1.1-2.6-1.1-4.2V57.1h-5.7v-3.2c2.1-0.2,4.2-1,6.3-2.3
			c2.1-1.3,4.2-2.9,6.2-4.9c2-1.9,3.9-4,5.6-6.1c1.8-2.2,3.3-4.2,4.6-6.1l1.7,1v15.5c3.6-1.5,7.5-3.7,11.8-6.6
			c4.3-2.8,8.7-5.6,13.1-8.4c4.4-2.8,8.9-5.2,13.3-7.2c4.4-2,8.6-3.1,12.6-3.1L993.3,25.6L993.3,25.6z"/>
		<path fill="#1A1A2E" d="M1013.5,107.7c1,1.3,2,1.9,3,1.9v2.1h-1.7c-3.6,0-7.2,0.3-10.8,1c-3.7,0.7-6.7,1.7-9,3l-1.8-1.4l0.1-9.9
			c-2.3,3.7-5.2,6.4-8.4,8.1c-3.3,1.7-6.6,2.6-9.8,2.6c-2.4,0-4.7-0.4-6.9-1.3c-2.2-0.9-4.1-2.2-5.8-3.9c-1.7-1.7-3-3.8-4-6.3
			c-1-2.5-1.5-5.4-1.5-8.8V65.8c0-2-0.5-3.6-1.5-4.6c-1-1.1-1.9-1.6-2.8-1.6v-2.1c3.9,0,7.7-0.5,11.6-1.4c3.9-0.9,7.2-2.1,9.9-3.5
			l1.6,1.3v42c0,3.6,0.7,6.1,2,7.5c1.3,1.5,2.9,2.2,4.8,2.2c1.2,0,2.5-0.3,3.9-0.9c1.3-0.6,2.5-1.3,3.6-2.3s1.9-2,2.6-3.2
			c0.7-1.2,1-2.5,1-3.8V66.5c0-2.2-0.5-4-1.5-5.2c-1-1.2-2-1.8-3-1.8v-2.1c3.9,0,7.8-0.5,11.6-1.4c3.9-0.9,7.2-2.1,9.9-3.5l1.6,1.3
			v48.6C1012.1,104.7,1012.6,106.4,1013.5,107.7z"/>
		<path fill="#1A1A2E" d="M1077.2,104.1c0,2.2,0.5,4,1.4,5.3c0.9,1.3,1.9,2,3,2v2.1h-23.2v-9.3c-1.5,2.7-3.6,4.9-6.1,6.7
			c-2.5,1.7-5.8,2.6-9.8,2.6c-3.6,0-6.7-0.8-9.4-2.4c-2.7-1.6-5-3.8-6.8-6.4c-1.9-2.6-3.2-5.6-4.2-9c-0.9-3.4-1.4-6.8-1.4-10.4
			c0-3.8,0.5-7.6,1.6-11.3c1.1-3.8,2.7-7.1,5-10.1c2.2-3,5.1-5.4,8.5-7.2c3.4-1.8,7.4-2.7,11.9-2.7h0.6c2.2,0,4.2,0.3,5.8,1
			s3.1,1.5,4.4,2.6V41.8c0-2.2-0.5-4-1.5-5.3c-1-1.3-2-1.9-3-1.9v-2.1c3.9,0,7.8-0.5,11.7-1.4c3.8-0.9,7-2.1,9.6-3.5l1.8,1.3
			L1077.2,104.1L1077.2,104.1z M1047.4,108c1.7,0,3.2-0.9,4.6-2.7c1.4-1.8,2.5-4.1,3.4-7c0.9-2.9,1.7-6,2.2-9.5
			c0.5-3.5,0.8-7,0.8-10.5c0-2.5-0.2-5-0.5-7.3c-0.3-2.4-0.8-4.4-1.3-6.2c-0.6-1.8-1.4-3.2-2.3-4.3c-1-1-2.1-1.6-3.3-1.6
			c-1.9,0-3.5,0.9-4.9,2.7c-1.4,1.8-2.6,4.1-3.6,6.9c-1,2.8-1.7,6-2.2,9.4c-0.5,3.5-0.8,6.9-0.8,10.4c0,2.5,0.2,5,0.5,7.3
			c0.3,2.3,0.8,4.4,1.3,6.2c0.6,1.8,1.3,3.3,2.2,4.4s2,1.8,3.2,1.9L1047.4,108L1047.4,108z"/>
		<path fill="#1A1A2E" d="M1109.1,104.6c0,2.1,0.5,3.7,1.4,4.9c1,1.2,1.9,1.8,2.8,1.8v2.1h-27.5v-2.1c1,0,2-0.7,3-2
			c1-1.3,1.5-3.1,1.5-5.3V66.7c0-2.2-0.5-4-1.4-5.3c-0.9-1.3-1.9-1.9-2.9-1.9v-2.1c3.8,0,7.7-0.5,11.6-1.4c3.9-0.9,7.2-2.1,9.7-3.5
			l1.7,1.3V104.6z M1099.1,48c-1.5,0-3-0.3-4.3-0.8c-1.3-0.5-2.4-1.3-3.4-2.2c-1-0.9-1.7-2-2.3-3.2c-0.6-1.2-0.9-2.6-0.9-3.9
			c0-1.4,0.3-2.7,0.9-4c0.6-1.3,1.3-2.4,2.3-3.3c1-0.9,2.1-1.7,3.4-2.2c1.3-0.5,2.7-0.8,4.3-0.8c2.9,0,5.4,1,7.4,3
			c2,2,3.1,4.4,3.1,7.3c0,1.4-0.3,2.7-0.8,3.9c-0.5,1.2-1.3,2.3-2.2,3.2c-1,0.9-2.1,1.7-3.3,2.2C1102,47.8,1100.6,48,1099.1,48z"/>
		<path fill="#1A1A2E" d="M1147.1,53.1c4.2,0,8.1,0.8,11.8,2.4c3.7,1.6,6.9,3.8,9.7,6.6c2.7,2.8,4.9,6,6.5,9.7
			c1.6,3.7,2.4,7.7,2.4,11.8s-0.8,8.1-2.4,11.8c-1.6,3.7-3.8,6.9-6.5,9.7c-2.7,2.8-6,5-9.7,6.6c-3.7,1.6-7.7,2.4-11.8,2.4
			c-4.2,0-8.1-0.8-11.8-2.4c-3.7-1.6-6.9-3.8-9.7-6.6c-2.7-2.8-4.9-6-6.5-9.7c-1.6-3.7-2.4-7.6-2.4-11.8s0.8-8.1,2.4-11.8
			c1.6-3.7,3.8-7,6.5-9.7c2.7-2.8,6-5,9.7-6.6C1139,53.9,1142.9,53.1,1147.1,53.1z M1147.1,58c-1.4,0-2.7,0.7-3.9,2.1
			c-1.2,1.4-2.3,3.3-3.2,5.7c-0.9,2.4-1.7,5.2-2.2,8.5c-0.5,3.2-0.8,6.7-0.8,10.3c0,3.7,0.3,7.2,0.8,10.4c0.5,3.2,1.3,6.1,2.2,8.5
			c0.9,2.4,2,4.3,3.2,5.7c1.2,1.4,2.6,2.1,3.9,2.1s2.7-0.7,3.9-2.1c1.2-1.4,2.3-3.3,3.2-5.7c0.9-2.4,1.7-5.2,2.2-8.5
			c0.5-3.2,0.8-6.7,0.8-10.4c0-3.6-0.3-7.1-0.8-10.3c-0.5-3.2-1.3-6.1-2.2-8.5c-0.9-2.4-2-4.3-3.2-5.7
			C1149.8,58.7,1148.5,58,1147.1,58z"/>
	</g>
</g>
</svg>
