<?xml version="1.0" encoding="UTF-8"?>
<svg id="Layer_1" data-name="Layer 1" xmlns="http://www.w3.org/2000/svg" viewBox="0 0 564.6023 361.5701">
  <defs>
    <style>
      .cls-1 {
        fill: #a4a7ab;
      }

      .cls-2 {
        fill: #c9a3e6;
      }

      .cls-3 {
        fill: #231f20;
      }

      .cls-4 {
        fill: #2dcdb8;
      }

      .cls-5 {
        fill: #6bc8e8;
      }

      .cls-6 {
        fill: #b5e785;
      }
    </style>
  </defs>
  <g>
    <path class="cls-4" d="M258.4248,209.6202c-6.3534-.3449-11.8784-.7141-16.9142-1.0522-1.9744-.1326-3.9075-.262-5.8315-.3864-27.0542,2.7028-50.9837,8.7166-69.211,17.4004-19.0954,9.0963-30.8349,20.7205-33.9508,33.6159-.5273,2.1823-.8682,4.437-1.0422,6.7281,2.6329-1.3618,5.3633-2.6484,8.1888-3.8519,17.9728-7.6568,37.9081-11.1658,51.424-9.1393,17.7897-17.0506,52.3033-36.0539,67.3369-43.3147Z"/>
    <path class="cls-4" d="M82.4596,104.6207c-4.1872-3.2903-7.2878-7.8109-8.8479-13.2471-.056-.1952-.0924-.3911-.1439-.5866-.6435-2.3058-.9951-4.7322-.9951-7.2404,0-6.0615,2.011-11.6618,5.3996-16.1705-4.3438-11.5633-4.6645-24.3758-.9485-37.5563-5.3289,1.811-10.425,4.5426-15.0987,8.2116-10.6551,8.3648-17.386,20.1886-19.1233,32.9334,6.2986,24.1773,23.6345,33.0427,39.758,33.6559Z"/>
    <path class="cls-4" d="M82.3353,62.7127c4.6587-3.8325,10.6193-6.1369,17.1087-6.1369,14.4164,0,26.2266,11.3697,26.9365,25.6129,4.2901-12.4907,4.4245-25.3401.1577-35.4349-3.4661-8.2011-9.5629-13.9971-17.6308-16.7617-8.4575-2.898-17.1435-3.4834-25.4506-1.9007-4.0695,12.1307-4.4396,23.9426-1.1215,34.6214Z"/>
    <path class="cls-4" d="M398.1271,225.5819c-18.2274-8.6837-42.1571-14.6976-69.2114-17.4004-1.9239.1245-3.8569.2538-5.8311.3864-5.0358.3381-10.5608.7073-16.9142,1.0522,15.0336,7.2608,49.5473,26.2641,67.3369,43.3147,13.5137-2.0256,33.4514,1.483,51.424,9.1393,2.8255,1.2037,5.5558,2.4903,8.1888,3.8519-.174-2.2911-.5149-4.5458-1.0422-6.7281-3.1159-12.8954-14.8559-24.5196-33.9508-33.6159Z"/>
    <path class="cls-4" d="M438.2147,82.1889c.7097-14.2432,12.52-25.6131,26.9365-25.6131,6.4894,0,12.4501,2.3044,17.1087,6.1369,3.3181-10.6788,2.948-22.4907-1.1215-34.6214-8.3072-1.5827-16.9933-.9973-25.4506,1.9007-8.0684,2.7647-14.1652,8.5611-17.6313,16.7622-4.2668,10.095-4.1321,22.9439.1582,35.4347Z"/>
    <path class="cls-4" d="M142.3346,162.0438c-12.6386-17.4625-22.4221-37.1395-27.9052-54.8714-4.682,2.4817-9.9965,3.6429-15.7073,3.3339-.0352-.0019-.0689-.0072-.1041-.0093-1.9716-.0598-3.8914-.3274-5.7358-.7902-2.8828.463-5.7639.7024-8.6107.7024-8.7797,0-17.2427-2.1781-24.4897-6.3854-6.937-4.0274-12.5858-9.8036-16.7585-17.0363,7.6996,54.4756,56.5922,71.1444,99.3113,75.0563Z"/>
    <path class="cls-4" d="M384.4954,311.1593c-9.1501-14.1654-14.0032-31.9218-14.7711-53.9046-16.9297-16.3244-51.1146-35.2044-65.8154-42.3526,5.8478,18.9772,18.3411,44.2095,37.9759,64.1347,9.7579,9.9021,25.8065,26.1859,42.6106,32.1226Z"/>
    <path class="cls-4" d="M504.8134,104.0239c-7.2465,4.2068-15.711,6.3854-24.4897,6.3854-2.8477,0-5.7274-.2389-8.6108-.7021-1.8443.4628-3.7641.7302-5.7356.7899-.0351.0021-.0689.0075-.1041.0093-5.7132.3087-11.0271-.852-15.7078-3.3325-5.4833,17.7315-15.2667,37.408-27.905,54.87,42.7192-3.9119,91.6119-20.5807,99.3116-75.0563-4.1727,7.2327-9.8215,13.0089-16.7585,17.0363Z"/>
    <path class="cls-4" d="M502.7702,38.0315c-4.6737-3.669-9.7698-6.4005-15.0987-8.2116,3.716,13.1805,3.3953,25.993-.9485,37.5563,3.3885,4.5087,5.3996,10.109,5.3996,16.1705,0,2.5125-.3528,4.943-.9985,7.2523-.0506.1912-.0861.3834-.141.5746-1.5601,5.4362-4.6604,9.9565-8.8473,13.2468,16.1246-.6134,33.4595-9.479,39.7579-33.6556-1.7373-12.7448-8.4681-24.5686-19.1233-32.9334Z"/>
    <path class="cls-4" d="M180.1022,311.1555c16.8044-5.938,32.8504-22.217,42.6082-32.1189,19.6347-19.9252,32.128-45.1575,37.9759-64.1347-14.7008,7.1482-48.8857,26.0283-65.8154,42.3526-.7678,21.981-5.6201,39.7362-14.7686,53.9009Z"/>
  </g>
  <g>
    <path class="cls-6" d="M128.8658,91.3307c-1.4458,3.0638-3.1764,5.7822-5.1381,8.1551,18.063,6.2333,38.1364,15.5083,50.1238,24.931-2.8794-16.4663-.7892-35.2145,11.7755-51.5524-17.2785-13.7843-33.1972-22.5715-56.8879-34.2034,1.1656,1.8202,2.2023,3.7697,3.0853,5.8586,5.6601,13.3914,4.5542,30.891-2.9585,46.8111Z"/>
    <path class="cls-6" d="M58.2818,33.5179c9.5723-7.5153,20.7152-11.585,32.1979-12.0083-12.3516-4.2871-26.8734-7.8833-39.5355-7.8833-8.3608,0-15.908,1.5668-21.4822,5.5368-21.8063,15.5321-7.99,40.5439,5.3715,64.7324.8908,1.6126,1.7725,3.2109,2.6385,4.7957-.3176-2.1043-.5691-4.1921-.756-6.2523-1.6962-18.7003,6.3657-36.9886,21.5658-48.9211Z"/>
    <path class="cls-6" d="M390.7437,124.4168c11.9872-9.4225,32.0602-18.6975,50.123-24.9308-1.9612-2.3729-3.6916-5.0913-5.1373-8.1553-7.5127-15.9197-8.6186-33.4193-2.9589-46.8107.883-2.0891,1.9199-4.0387,3.0856-5.859-23.6913,11.6322-39.61,20.4193-56.8879,34.2032,12.5649,16.3382,14.655,35.0861,11.7756,51.5526Z"/>
    <path class="cls-6" d="M400.0096,209.3017c-8.6666-.8854-18.425-1.8811-31.1881-2.1319-.0012,0-.0024.0005-.0036.0005-.0023,0-.0046-.0005-.0069-.0005-.7863-.0154-1.5812-.0287-2.3907-.0383-2.4647-.0297-4.7966-.0411-7.0302-.0378,37.3705,7.9442,71.8353,24.143,78.2657,50.7564.8815,3.6487,1.3035,7.4723,1.3158,11.3473,13.0509,7.7719,23.2366,17.5412,29.6878,28.5638,1.0596-4.8787,1.6161-9.9343,1.6096-15.0655-.021-16.2877-5.4359-32.3106-15.2472-45.1173-10.8141-14.1159-26.2954-23.5545-44.7744-27.3067-3.3061-.2657-6.6743-.6064-10.2378-.97Z"/>
    <path class="cls-6" d="M432.3128,166.7013c18.5747,4.4646,35.1811,12.3506,48.0221,22.929,2.7833-1.8568,5.5251-3.9782,8.194-6.4286,18.4014-16.8948,21.6952-36.0159,25.5087-58.1561.0997-.5784.2044-1.1755.3055-1.7606-13.1816,20.2299-37.763,37.5341-82.0303,43.4162Z"/>
    <path class="cls-6" d="M367.5017,82.4922c-19.9034,17.1556-41.4946,37.1652-55.1152,70.251-6.5287,15.8588-9.6295,32.4276-11.0801,43.5054,29.065-17.9477,66.7703-60.0416,66.1953-113.7565Z"/>
    <path class="cls-6" d="M50.2514,123.2839c.1012.5859.206,1.1836.3057,1.7627,3.814,22.1402,7.1083,41.2608,25.5092,58.1551,2.6689,2.4504,5.4107,4.5717,8.194,6.4286,12.8409-10.5784,29.4474-18.4644,48.0221-22.929-44.2681-5.8822-68.8496-23.187-82.031-43.4174Z"/>
    <path class="cls-6" d="M535.1332,19.1631c-14.0154-9.9813-40.5107-4.7709-61.0174,2.3462,11.4826.4236,22.6254,4.4938,32.1976,12.0086,15.2001,11.9324,23.262,30.2208,21.5658,48.9211-.1869,2.06-.4383,4.1475-.7558,6.2518.8658-1.5845,1.7473-3.1826,2.6379-4.7947,13.3619-24.1885,27.1783-49.2008,5.372-64.7329Z"/>
    <path class="cls-6" d="M438.6101,275.6149c-.9757,8.5088-3.8984,16.9558-8.5712,24.0876-6.7403,10.2876-16.5166,17.0172-27.5271,18.9492-1.0632.1863-2.1283.3141-3.1931.396,13.3061,4.7065,31.4044,8.5553,54.4147,8.0445,1.3241-1.4346,2.5813-2.9341,3.7622-4.5027,3.7618-4.9972,6.7414-10.6638,8.8797-16.7433-5.6934-12.624-15.8923-22.673-27.7651-30.2313Z"/>
    <path class="cls-6" d="M197.0931,82.4919c-.5746,53.7151,37.1307,95.809,66.1957,113.7567-1.4506-11.0778-4.5514-27.6467-11.0801-43.5054-13.6215-33.0873-35.214-53.0975-55.1156-70.2513Z"/>
    <path class="cls-6" d="M162.0829,318.6517c-11.0106-1.932-20.7864-8.6615-27.5267-18.9487-4.6731-7.1323-7.5961-15.5799-8.5716-24.0897-11.8728,7.5587-22.0716,17.6082-27.7651,30.2324,2.1382,6.0797,5.118,11.7463,8.88,16.7437,1.181,1.5688,2.4383,3.0683,3.7625,4.5031,23.0119.5172,41.1137-3.3342,54.4219-8.0442-1.067-.0817-2.1343-.2097-3.2011-.3967Z"/>
    <path class="cls-6" d="M125.6234,269.1973c.0124-3.875.4344-7.6986,1.316-11.3473,6.43-26.6132,40.8943-42.8117,78.2643-50.7562-2.2332-.0033-4.5646.0079-7.0288.0376-.8097.0096-1.6049.0229-2.3914.0383-.0023,0-.0044.0005-.0067.0005-.0012,0-.0024-.0005-.0036-.0005-12.7629.2508-22.5211,1.2464-31.1877,2.1319-3.5627.3636-6.9308.704-10.2367.9697-18.4794,3.7519-33.9611,13.1908-44.7755,27.3069-9.8113,12.8067-15.2262,28.8296-15.2472,45.1173-.0065,5.1312.5498,10.1868,1.6094,15.0655,6.4513-11.0227,16.6369-20.7919,29.6878-28.5638Z"/>
  </g>
  <g>
    <path class="cls-2" d="M194.6555,165.3287c-2.4568-2.4536-4.6834-4.9278-6.595-7.4023-4.4919-5.8149-8.8308-13.9522-11.7435-23.3266-7.7948-9.4498-30.9329-21.868-56.8155-30.4882,5.7198,19.2105,16.7117,40.9344,30.9936,59.3862,15.739-1.7765,31.4843-1.0487,44.1604,1.8309Z"/>
    <path class="cls-2" d="M178.7718,117.9957c.4568,4.8237,1.4408,9.6988,2.8599,14.4139.0016.0058.0034.0117.005.0175,2.4691,8.1969,6.2638,15.9052,10.9649,21.9912,4.028,5.2141,9.4864,10.4364,15.7352,15.4441.3372.1749.6271.4047.8606.6786,13.8247,10.9109,31.2965,20.738,45.8115,27.1351-30.2356-20.9372-66.2745-64.8889-63.5044-119.9697-.4776-.4049-.9558-.8112-1.4301-1.2077-11.137,14.5993-12.3443,30.4956-11.3027,41.4971Z"/>
    <path class="cls-2" d="M196.3429,201.4212c.5847-.0103,1.1665-.0212,1.7638-.0283,18.8824-.2214,30.423.5515,43.7882,1.4496,3.828.2569,7.9379.5319,12.4751.8007-15.2562-6.5787-34.0585-17.0648-48.8991-28.7883-11.6696-5.3729-30.4108-7.8331-50.6506-6.0029,12.1555,14.469,26.3536,26.3736,41.5226,32.5691Z"/>
    <path class="cls-2" d="M366.4885,201.3929c.5972.007,1.1788.018,1.7634.0283,15.1692-6.1955,29.3674-18.1002,41.523-32.5691-20.2402-1.8307-38.9814.6298-50.6504,6.0029-14.8406,11.7234-33.643,22.2096-48.8992,28.7883,4.5372-.2688,8.6471-.5438,12.4751-.8007,11.7877-.792,22.158-1.4883,37.3945-1.4883,2.0389,0,4.1647.0126,6.3938.0388Z"/>
    <path class="cls-2" d="M309.5863,197.6761c14.515-6.397,31.9868-16.2242,45.8115-27.1351.2335-.2739.5233-.5037.8606-.6786,6.2488-5.0077,11.7072-10.23,15.7352-15.4441,4.7012-6.086,8.4959-13.7944,10.9649-21.9912.0016-.0058.0034-.0117.005-.0175,1.4191-4.7151,2.4031-9.5902,2.8599-14.4139,1.0416-11.0015-.1657-26.8978-11.3028-41.4973-.4744.3965-.9527.803-1.4304,1.2079,2.7704,55.0811-33.2684,99.0328-63.5039,119.9697Z"/>
    <path class="cls-2" d="M445.0936,104.1117c-25.8826,8.6202-49.0207,21.0383-56.8155,30.4882-2.9127,9.3744-7.2515,17.5117-11.7435,23.3266-1.9114,2.4742-4.1377,4.9481-6.5942,7.4016,12.6755-2.8803,28.4199-3.609,44.1594-1.8304,14.282-18.4518,25.274-40.1755,30.9938-59.3859Z"/>
    <path class="cls-2" d="M380.3405,201.8712c7.6963.4413,14.2367,1.107,20.2524,1.7214,13.4801,1.3763,24.1273,2.4649,38.9449-.1027,10.7369-1.8596,23.382-4.0545,35.575-10.7026-16.6794-13.1165-38.0903-20.374-58.6339-23.1688-10.6353,13.2155-22.9133,24.6613-36.1384,32.2527Z"/>
    <path class="cls-2" d="M371.189,311.1593c-13.5163-7.9248-25.4326-20.0183-33.3914-28.0952-15.2705-15.4959-26.3719-34.0904-33.531-50.7277,6.3946,42.0963,20.5177,73.425,42.1053,93.2792,20.2773,18.6494,45.8799,25.9748,72.091,20.6243,11.2271-2.2914,21.0886-6.8458,29.1221-13.3754-41.5868-.4599-66.7369-14.8434-75.93-21.2918-.1744-.1224-.3277-.2627-.466-.4135Z"/>
    <path class="cls-2" d="M193.4082,311.156c-.1389.152-.2929.2936-.4685.4168-9.1926,6.4479-34.3476,20.8317-75.9295,21.2918,8.0335,6.5295,17.895,11.084,29.1221,13.3754,26.2111,5.3486,51.8137-1.9759,72.091-20.6243,21.5873-19.8545,35.7102-51.1825,42.1047-93.2778-7.1591,16.6368-18.2604,35.2306-33.5305,50.7263-7.9577,8.0757-19.8738,20.1671-33.3894,28.0919Z"/>
    <path class="cls-2" d="M164.0023,203.5925c6.0155-.6143,12.5558-1.2801,20.2519-1.7214-13.2249-7.5914-25.5031-19.0372-36.1382-32.2525-20.5436,2.7946-41.9542,10.0518-58.6337,23.1686,12.193,6.648,24.8381,8.843,35.575,10.7026,14.8176,2.5667,25.4648,1.479,38.9449.1027Z"/>
  </g>
  <path class="cls-3" d="M538.462,14.4893c-9.5484-6.8015-24.1745-8.3641-43.4707-4.6462-19.5101,3.7594-36.6804,11.584-41.4779,13.8929-37.5402,18.0644-57.48,27.6623-80.8271,46.8305,1.8001-3.2522,2.8443-7.0039,2.8261-10.8679-.0444-9.2215-5.8362-18.4467-14.4127-22.9556-8.9319-4.6957-18.591-4.572-28.7105.3647-22.231,10.845-41.2186,43.2372-45.29,61.9533-1.5367-.1866-3.1363-.2877-4.8019-.2877s-3.2649.1011-4.8014.2877c-4.0715-18.7164-23.0589-51.1083-45.2899-61.9533-10.1195-4.9367-19.779-5.06-28.7105-.3647-8.577,4.5094-14.3693,13.7346-14.4127,22.9556-.0183,3.8642,1.0261,7.6159,2.8264,10.8681-23.3454-19.1675-43.2854-28.7654-80.8273-46.8308-4.7975-2.3089-21.9679-10.1335-41.4779-13.8929-19.2985-3.7192-33.9232-2.1543-43.4707,4.6462-11.6943,8.329-15.9118,19.574-12.8935,34.3781,2.5218,12.3696,9.6637,25.299,16.5707,37.8026,6.0902,11.026,11.8432,21.4402,13.4044,29.8196.5992,3.2153,1.1521,6.426,1.6873,9.5311,3.8262,22.2107,7.4403,43.19,27.2833,61.4083,17.0858,15.6872,36.3853,19.0295,51.8921,21.7152,3.8657.6695,7.4421,1.0975,10.8567,1.3508-11.8763,5.3407-22.0377,13.3094-29.9165,23.5933-10.5725,13.8005-16.4077,31.0605-16.4302,48.5998-.0248,19.3547,6.7362,36.2969,18.5714,48.7718.2033.3246.4702.6047.7835.8252,9.4944,9.6657,22.1145,16.531,37.042,19.5775,6.0005,1.2245,11.9693,1.8297,17.8587,1.8297,21.6555,0,42.2284-8.1847,59.2648-23.8532,18.593-17.1,31.8631-42.1415,39.6531-74.7188.3421,3.0341.7136,5.8299,1.0757,8.2968,3.4736,23.6603,10.2241,46.1437,16.7982,55.9476.5534.8257,1.4613,1.2717,2.3859,1.2717.0922,0,.1845-.011.2767-.0201.0922.0091.1845.0201.2767.0201.9247,0,1.8325-.4465,2.3859-1.2717,6.574-9.8038,13.3246-32.2872,16.7982-55.9471.3622-2.4672.7337-5.2631,1.0758-8.2975,7.7903,32.5773,21.0604,57.619,39.6531,74.719,17.0377,15.6699,37.6074,23.8532,59.2648,23.8532,5.888,0,11.86-.6057,17.8587-1.8297,14.9271-3.0465,27.5471-9.9117,37.0415-19.5773.3135-.2207.5807-.5009.7842-.8259,11.835-12.4747,18.5959-29.4169,18.5712-48.7713-.0229-17.5398-5.8576-34.7993-16.4306-48.5998-7.8785-10.2839-18.0399-18.2529-29.9164-23.5935,3.4148-.2533,6.9914-.6811,10.8565-1.3506,15.5074-2.6857,34.8068-6.0281,51.8926-21.7152,19.8435-18.2188,23.4572-39.198,27.2833-61.4097.5347-3.1046,1.0877-6.3148,1.6868-9.5302,1.5612-8.379,7.3142-18.7932,13.4044-29.8187,6.907-12.5036,14.0494-25.4331,16.5712-37.8031,3.0183-14.8036-1.1993-26.049-12.8935-34.3781ZM455.6878,29.992c8.4573-2.898,17.1434-3.4834,25.4506-1.9007,4.0695,12.1307,4.4396,23.9426,1.1215,34.6214-4.6587-3.8325-10.6193-6.1369-17.1087-6.1369-14.4164,0-26.2268,11.3699-26.9365,25.6131-4.2903-12.4907-4.425-25.3397-.1582-35.4347,3.4661-8.2011,9.5629-13.9975,17.6313-16.7622ZM424.9313,262.0741c-17.9726-7.6563-37.9103-11.1649-51.424-9.1393-17.7897-17.0506-52.3033-36.0539-67.3369-43.3147,6.3534-.3449,11.8784-.7141,16.9142-1.0522,1.9743-.1326,3.9073-.262,5.8311-.3864,27.0543,2.7028,50.984,8.7166,69.2114,17.4004,19.0949,9.0963,30.8349,20.7205,33.9508,33.6159.5273,2.1823.8682,4.437,1.0422,6.7281-2.633-1.3616-5.3633-2.6481-8.1888-3.8519ZM433.1521,272.3753c-.5202,8.475-3.2431,17.0543-7.9135,24.1824-5.8623,8.9473-14.2857,14.7863-23.7187,16.4414-2.832.4979-5.6959.5315-8.5647.1901-10.7293-13.743-16.4574-31.7163-17.4554-54.7534,14.2104-1.7085,37.5661,2.8233,57.6522,13.9396ZM322.7003,202.8425c-3.828.2569-7.9379.5319-12.4751.8007,15.2562-6.5787,34.0586-17.0648,48.8992-28.7883,11.669-5.3731,30.4103-7.8335,50.6504-6.0029-12.1555,14.469-26.3538,26.3736-41.523,32.5691-.5845-.0103-1.1661-.0212-1.7634-.0283-2.229-.0262-4.3548-.0388-6.3938-.0388-15.2365,0-25.6068.6963-37.3945,1.4883ZM369.9405,165.328c2.4565-2.4534,4.6828-4.9274,6.5942-7.4016,4.4919-5.8149,8.8308-13.9522,11.7435-23.3266,7.7948-9.4498,30.9329-21.868,56.8155-30.4882-5.7198,19.2105-16.7118,40.9341-30.9938,59.3859-15.7395-1.7786-31.4839-1.0498-44.1594,1.8304ZM443.9188,83.5467c0-11.7073,9.525-21.2324,21.2324-21.2324s21.2328,9.525,21.2328,21.2324-9.525,21.2328-21.2328,21.2328-21.2324-9.525-21.2324-21.2328ZM435.856,38.661c-1.1657,1.8204-2.2025,3.7699-3.0856,5.859-5.6596,13.3914-4.5538,30.891,2.9589,46.8107,1.4457,3.064,3.176,5.7825,5.1373,8.1553-18.0628,6.2333-38.1358,15.5083-50.123,24.9308,2.8794-16.4666.7892-35.2145-11.7756-51.5526,17.2779-13.7839,33.1967-22.571,56.8879-34.2032ZM373.0902,77.7063c.4777-.4049.9561-.8114,1.4304-1.2079,11.1371,14.5995,12.3444,30.4959,11.3028,41.4973-.4568,4.8237-1.4408,9.6988-2.8599,14.4139-.0016.0058-.0034.0117-.005.0175-2.4691,8.1969-6.2638,15.9052-10.9649,21.9912-4.028,5.2141-9.4864,10.4364-15.7352,15.4441-.3372.1749-.6271.4047-.8606.6786-13.8247,10.9109-31.2965,20.738-45.8115,27.1351,30.2356-20.937,66.2743-64.8887,63.5039-119.9697ZM334.9054,42.2653c8.386-4.0914,16.3008-4.2399,23.524-.4432,6.751,3.5497,11.3104,10.7444,11.3445,17.9036.035,7.4202-5.3603,14.5-11.7821,15.4593-3.0706.4605-6.482-.7005-9.1243-3.1018-2.6166-2.3771-4.0228-5.5298-3.8589-8.6494.2354-4.4664,2.3635-7.0541,5.767-6.9233,2.2584.0873,4.6612,1.5682,4.6051,3.8075-.0397,1.5845,1.2123,2.9006,2.7964,2.9403,1.6163.0243,2.9006-1.2128,2.9403-2.7964.1452-5.8114-5.031-9.4881-10.1191-9.6857-5.5036-.2139-11.2548,3.524-11.7204,12.356-.255,4.847,1.8335,9.6577,5.7301,13.1985,3.9046,3.5474,9.0748,5.2384,13.8317,4.5304.8389-.1254,1.6565-.339,2.462-.5926-19.6967,17.1131-40.6562,37.3377-54.2216,70.2903-1.5765,3.8292-2.956,7.6778-4.1695,11.4785-1.4046-6.4797-4.049-12.6906-7.6588-17.8083-.0877-.1245-.1768-.241-.2649-.3631,8.0366-4.4739,13.4881-13.0535,13.4881-22.8858,0-10.2486-5.9351-17.7373-15.7584-20.7467,3.7481-17.1767,21.8147-48.0291,42.1886-57.9679ZM293.0726,183.9601c-1.9166,2.3149-5.1926,5.1296-9.9168,5.3902-4.9811.2779-8.6181-2.4396-10.7948-4.7639-4.2273-4.5136-6.4848-11.3421-5.7512-17.3964,1.0581-8.7288,4.7359-16.2506,8.4558-21.0563,2.2987.662,4.7231,1.0241,7.2318,1.0241,2.5123,0,4.94-.3631,7.2414-1.0267,3.5885,4.5547,7.2065,11.6929,8.4051,20.6675.7878,5.8992-1.1245,12.6353-4.8713,17.1615ZM282.2974,104.5119c9.8809,0,20.4394,4.3263,20.4394,16.468,0,11.2702-9.1692,20.4394-20.4394,20.4394s-20.4389-9.1692-20.4389-20.4394c0-12.1417,10.558-16.468,20.4389-16.468ZM206.1658,41.8221c7.2232-3.7977,15.1375-3.6492,23.524.4432,20.3739,9.9388,38.4404,40.791,42.1886,57.9679-9.8232,3.0091-15.7584,10.498-15.7584,20.7467,0,9.823,5.4411,18.3948,13.4648,22.8725-3.444,4.7578-6.388,11.0699-7.9112,18.1499-1.2108-3.7893-2.5869-7.6262-4.1586-11.4437-13.5653-32.9516-34.5244-53.1764-54.2222-70.2905.8057.2536,1.6236.4675,2.4627.5929,4.7597.7056,9.9276-.984,13.8317-4.5309,3.8967-3.5404,5.9851-8.351,5.7292-13.198-.4647-8.832-6.2294-12.5634-11.719-12.356-5.0885.1975-10.2648,3.8743-10.1195,9.6857.0397,1.5841,1.3244,2.8212,2.9403,2.7964,1.5841-.0397,2.8361-1.3557,2.7964-2.9403-.056-2.2393,2.3467-3.7202,4.6051-3.8075,3.3638-.1284,5.5307,2.4569,5.7666,6.9233.1644,3.1196-1.2418,6.2723-3.8584,8.6494-2.6418,2.4018-6.0514,3.5623-9.1243,3.1018-6.4218-.9592-11.8171-8.0386-11.7821-15.4593.0336-7.1587,4.593-14.3539,11.3445-17.9036ZM191.5046,77.7063c-2.7701,55.0809,33.2688,99.0325,63.5044,119.9697-14.515-6.397-31.9868-16.2242-45.8115-27.1351-.2335-.2739-.5233-.5037-.8606-.6786-6.2488-5.0077-11.7072-10.23-15.7352-15.4441-4.7012-6.086-8.4959-13.7944-10.9649-21.9912-.0016-.0058-.0034-.0117-.005-.0175-1.4191-4.7151-2.4031-9.5902-2.8599-14.4139-1.0416-11.0015.1657-26.8978,11.3027-41.4971.4742.3965.9525.8028,1.4301,1.2077ZM139.6639,262.0741c-2.8255,1.2035-5.5558,2.4901-8.1888,3.8519.174-2.2911.5149-4.5458,1.0422-6.7281,3.1159-12.8954,14.8554-24.5196,33.9508-33.6159,18.2273-8.6837,42.1569-14.6976,69.211-17.4004,1.924.1245,3.8571.2538,5.8315.3864,5.0358.3381,10.5608.7073,16.9142,1.0522-15.0336,7.2608-49.5472,26.2641-67.3369,43.3147-13.5159-2.0266-33.4512,1.4825-51.424,9.1393ZM189.0954,258.4362c-.998,23.0355-6.7255,41.0078-17.4535,54.7505-2.8695.342-5.7342.3094-8.567-.1876-9.433-1.6551-17.8564-7.494-23.7187-16.4409-4.6704-7.1288-7.3931-15.7088-7.9131-24.1847,20.0854-11.1163,43.4404-15.6482,57.6524-13.9373ZM176.317,134.5998c2.9127,9.3744,7.2515,17.5117,11.7435,23.3266,1.9116,2.4744,4.1382,4.9486,6.595,7.4023-12.676-2.8796-28.4214-3.6074-44.1604-1.8309-14.2819-18.4518-25.2738-40.1757-30.9936-59.3862,25.8826,8.6202,49.0207,21.0383,56.8155,30.4882ZM99.4441,104.7795c-11.7078,0-21.2328-9.525-21.2328-21.2328s9.525-21.2324,21.2328-21.2324,21.2324,9.525,21.2324,21.2324-9.525,21.2328-21.2324,21.2328ZM205.4709,174.8549c14.8406,11.7234,33.6429,22.2096,48.8991,28.7883-4.5372-.2688-8.6471-.5438-12.4751-.8007-13.3652-.898-24.9058-1.6709-43.7882-1.4496-.5974.007-1.1791.018-1.7638.0283-15.169-6.1955-29.3671-18.1002-41.5226-32.5691,20.2399-1.8302,38.981.63,50.6506,6.0029ZM185.6269,72.8644c-12.5647,16.3379-14.6548,35.0861-11.7755,51.5524-11.9874-9.4228-32.0607-18.6977-50.1238-24.931,1.9617-2.3729,3.6923-5.0913,5.1381-8.1551,7.5127-15.9202,8.6186-33.4198,2.9585-46.8111-.8829-2.0889-1.9197-4.0384-3.0853-5.8586,23.6907,11.6319,39.6095,20.4191,56.8879,34.2034ZM108.9074,29.992c8.068,2.7647,14.1647,8.5607,17.6308,16.7617,4.2668,10.0948,4.1324,22.9442-.1577,35.4349-.7098-14.2432-12.5201-25.6129-26.9365-25.6129-6.4894,0-12.4501,2.3044-17.1087,6.1369-3.3181-10.6788-2.948-22.4907,1.1215-34.6214,8.3071-1.5827,16.9931-.9973,25.4506,1.9007ZM34.8335,83.8955c-13.3615-24.1885-27.1778-49.2003-5.3715-64.7324,5.5742-3.97,13.1214-5.5368,21.4822-5.5368,12.6621,0,27.1839,3.5962,39.5355,7.8833-11.4827.4233-22.6257,4.4931-32.1979,12.0083-15.2001,11.9324-23.262,30.2208-21.5658,48.9211.1869,2.0602.4384,4.1479.756,6.2523-.8659-1.5848-1.7477-3.1831-2.6385-4.7957ZM61.825,38.0315c4.6737-3.669,9.7699-6.4005,15.0987-8.2116-3.716,13.1805-3.3953,25.993.9485,37.5563-3.3885,4.5087-5.3996,10.109-5.3996,16.1705,0,2.5083.3516,4.9346.9951,7.2404.0515.1954.0879.3913.1439.5866,1.5601,5.4362,4.6607,9.9568,8.8479,13.2471-16.1235-.6132-33.4594-9.4786-39.758-33.6559,1.7373-12.7448,8.4682-24.5686,19.1233-32.9334ZM43.0233,86.9876c4.1727,7.2327,9.8215,13.0089,16.7585,17.0363,7.247,4.2072,15.71,6.3854,24.4897,6.3854,2.8468,0,5.7279-.2393,8.6107-.7024,1.8444.4628,3.7642.7304,5.7358.7902.0351.0021.0689.0075.1041.0093,5.7109.3089,11.0253-.8523,15.7073-3.3339,5.4832,17.7319,15.2666,37.4089,27.9052,54.8714-42.7191-3.9119-91.6117-20.5807-99.3113-75.0563ZM76.0663,183.2017c-18.4009-16.8944-21.6952-36.0149-25.5092-58.1551-.0997-.5791-.2045-1.1769-.3057-1.7627,13.1814,20.2304,37.7629,37.5353,82.031,43.4174-18.5747,4.4646-35.1811,12.3506-48.0221,22.929-2.7833-1.8568-5.5251-3.9782-8.194-6.4286ZM125.0574,203.4898c-10.7369-1.8596-23.382-4.0545-35.575-10.7026,16.6794-13.1168,38.09-20.374,58.6337-23.1686,10.6351,13.2153,22.9133,24.6611,36.1382,32.2525-7.6961.4413-14.2364,1.107-20.2519,1.7214-13.4801,1.3763-24.1273,2.4639-38.9449-.1027ZM94.3261,282.6956c.021-16.2877,5.4359-32.3106,15.2472-45.1173,10.8144-14.1161,26.296-23.555,44.7755-27.3069,3.306-.2657,6.674-.6062,10.2367-.9697,8.6666-.8854,18.4248-1.8811,31.1877-2.1319.0012,0,.0024.0005.0036.0005.0023,0,.0044-.0005.0067-.0005.7864-.0154,1.5816-.0287,2.3914-.0383,2.4642-.0297,4.7956-.0409,7.0288-.0376-37.37,7.9444-71.8343,24.143-78.2643,50.7562-.8816,3.6487-1.3036,7.4723-1.316,11.3473-13.0509,7.7719-23.2365,17.5412-29.6878,28.5638-1.0596-4.8787-1.6159-9.9343-1.6094-15.0655ZM110.8621,327.0925c-1.3242-1.4348-2.5815-2.9343-3.7625-4.5031-3.7621-4.9974-6.7418-10.664-8.88-16.7437,5.6934-12.6242,15.8923-22.6737,27.7651-30.2324.9755,8.5098,3.8984,16.9574,8.5716,24.0897,6.7403,10.2872,16.5161,17.0167,27.5267,18.9487,1.0669.187,2.1341.315,3.2011.3967-13.3082,4.71-31.41,8.5614-54.4219,8.0442ZM218.2234,325.6156c-20.2773,18.6484-45.8799,25.9729-72.091,20.6243-11.2271-2.2914-21.0886-6.8458-29.1221-13.3754,41.5819-.4601,66.7369-14.8439,75.9295-21.2918.1756-.1232.3295-.2648.4685-.4168,13.5156-7.9248,25.4317-20.0162,33.3894-28.0919,15.2701-15.4957,26.3713-34.0895,33.5305-50.7263-6.3945,42.0953-20.5174,73.4233-42.1047,93.2778ZM222.7104,279.0367c-9.7577,9.9019-25.8038,26.1809-42.6082,32.1189,9.1486-14.1647,14.0009-31.9199,14.7686-53.9009,16.9297-16.3244,51.1146-35.2044,65.8154-42.3526-5.8478,18.9772-18.3411,44.2095-37.9759,64.1347ZM197.0931,82.4919c19.9016,17.1538,41.4942,37.164,55.1156,70.2513,6.5287,15.8588,9.6295,32.4276,11.0801,43.5054-29.0651-17.9477-66.7704-60.0416-66.1957-113.7567ZM296.0805,262.5841c-2.9014,19.7632-8.2831,39.1398-13.641,49.689-.0473.0932-.0946.1805-.142.2723-.0473-.0918-.0946-.1791-.142-.2723-5.3581-10.5492-10.7395-29.9263-13.6414-49.6895-3.9121-26.6468-3.0047-50.0377,2.4891-64.1753.8005-2.0602,1.698-3.9193,2.6839-5.5907,2.7536,1.4996,5.7395,2.29,8.797,2.29.3288,0,.658-.0089.9882-.0271,2.6238-.145,5.1681-.8691,7.5231-2.1097.9509,1.6324,1.8199,3.4393,2.5964,5.4376,5.4938,14.1376,6.4008,37.529,2.4887,64.1758ZM301.3064,196.2487c1.4506-11.0778,4.5514-27.6467,11.0801-43.5054,13.6207-33.0859,35.2119-53.0954,55.1152-70.251.575,53.7149-37.1303,95.8088-66.1953,113.7565ZM369.7244,257.2546c.7678,21.9828,5.6209,39.7392,14.7711,53.9046-16.8041-5.9367-32.8527-22.2205-42.6106-32.1226-19.6347-19.9252-32.128-45.1575-37.9759-64.1347,14.7008,7.1482,48.8857,26.0283,65.8154,42.3526ZM418.4628,346.24c-26.2111,5.3505-51.8137-1.975-72.091-20.6243-21.5875-19.8542-35.7106-51.1829-42.1053-93.2792,7.1591,16.6373,18.2606,35.2318,33.531,50.7277,7.9588,8.0768,19.8751,20.1703,33.3914,28.0952.1383.1508.2916.2912.466.4135,9.1931,6.4484,34.3432,20.8319,75.93,21.2918-8.0335,6.5295-17.895,11.084-29.1221,13.3754ZM457.4955,322.5895c-1.1809,1.5687-2.4381,3.0681-3.7622,4.5027-23.0103.5108-41.1086-3.338-54.4147-8.0445,1.0648-.082,2.1299-.2097,3.1931-.396,11.0106-1.932,20.7868-8.6615,27.5271-18.9492,4.6728-7.1318,7.5954-15.5787,8.5712-24.0876,11.8728,7.5582,22.0717,17.6072,27.7651,30.2313-2.1383,6.0795-5.1179,11.7461-8.8797,16.7433ZM455.0218,237.5783c9.8113,12.8067,15.2262,28.8296,15.2472,45.1173.0065,5.1312-.55,10.1868-1.6096,15.0655-6.4512-11.0227-16.6369-20.7919-29.6878-28.5638-.0124-3.875-.4343-7.6986-1.3158-11.3473-6.4304-26.6134-40.8952-42.8122-78.2657-50.7564,2.2336-.0033,4.5655.0082,7.0302.0378.8095.0096,1.6045.0229,2.3907.0383.0023,0,.0046.0005.0069.0005.0012,0,.0024-.0005.0036-.0005,12.7631.2508,22.5215,1.2464,31.1881,2.1319,3.5635.3636,6.9317.7042,10.2378.97,18.479,3.7521,33.9602,13.1908,44.7744,27.3067ZM439.5378,203.4898c-14.8176,2.5676-25.4648,1.479-38.9449.1027-6.0157-.6143-12.5561-1.2801-20.2524-1.7214,13.225-7.5914,25.5031-19.0372,36.1384-32.2527,20.5436,2.7948,41.9545,10.0523,58.6339,23.1688-12.193,6.648-24.8381,8.843-35.575,10.7026ZM514.0377,125.0456c-3.8136,22.1402-7.1073,41.2613-25.5087,58.1561-2.6689,2.4504-5.4107,4.5717-8.194,6.4286-12.8409-10.5784-29.4474-18.4644-48.0221-22.929,44.2672-5.8822,68.8487-23.1863,82.0303-43.4162-.1011.5852-.2058,1.1822-.3055,1.7606ZM422.2603,162.0438c12.6384-17.462,22.4218-37.1385,27.905-54.87,4.6807,2.4805,9.9945,3.6412,15.7078,3.3325.0352-.0019.0689-.0072.1041-.0093,1.9716-.0598,3.8913-.3271,5.7356-.7899,2.8834.4633,5.7631.7021,8.6108.7021,8.7788,0,17.2432-2.1786,24.4897-6.3854,6.937-4.0274,12.5858-9.8036,16.7585-17.0363-7.6996,54.4756-56.5923,71.1444-99.3116,75.0563ZM482.1357,104.6205c4.1869-3.2903,7.2873-7.8107,8.8473-13.2468.0549-.1912.0904-.3834.141-.5746.6457-2.3093.9985-4.7399.9985-7.2523,0-6.0615-2.011-11.6618-5.3996-16.1705,4.3438-11.5633,4.6645-24.3758.9485-37.5563,5.3289,1.811,10.425,4.5426,15.0987,8.2116,10.6552,8.3648,17.3861,20.1886,19.1233,32.9334-6.2983,24.1766-23.6332,33.0422-39.7579,33.6556ZM529.7612,83.896c-.8906,1.6121-1.7721,3.2102-2.6379,4.7947.3176-2.1043.569-4.1918.7558-6.2518,1.6962-18.7003-6.3657-36.9886-21.5658-48.9211-9.5722-7.5148-20.715-11.585-32.1976-12.0086,20.5068-7.1171,47.002-12.3275,61.0174-2.3462,21.8063,15.5321,7.99,40.5444-5.372,64.7329Z"/>
  <g>
    <path class="cls-5" d="M139.3561,296.5581c5.8623,8.9469,14.2857,14.7858,23.7187,16.4409,2.8328.497,5.6976.5296,8.567.1876,10.728-13.7427,16.4555-31.715,17.4535-54.7505-14.2119-1.7109-37.567,2.8209-57.6524,13.9373.52,8.4759,3.2427,17.0559,7.9131,24.1847Z"/>
    <path class="cls-5" d="M375.4998,258.4357c.998,23.0371,6.7262,41.0104,17.4554,54.7534,2.8688.3414,5.7327.3079,8.5647-.1901,9.433-1.6551,17.8564-7.494,23.7187-16.4414,4.6703-7.1281,7.3932-15.7074,7.9135-24.1824-20.0861-11.1163-43.4419-15.6482-57.6522-13.9396Z"/>
    <path class="cls-5" d="M99.4441,62.3143c-11.7078,0-21.2328,9.525-21.2328,21.2324s9.525,21.2328,21.2328,21.2328,21.2324-9.525,21.2324-21.2328-9.525-21.2324-21.2324-21.2324Z"/>
    <path class="cls-5" d="M465.1511,104.7795c11.7078,0,21.2328-9.525,21.2328-21.2328s-9.525-21.2324-21.2328-21.2324-21.2324,9.525-21.2324,21.2324,9.525,21.2328,21.2324,21.2328Z"/>
  </g>
  <g>
    <path class="cls-1" d="M293.5918,198.4083c-.7764-1.9983-1.6455-3.8052-2.5963-5.4376-2.3551,1.2406-4.8993,1.9647-7.5232,2.1097-.3302.0182-.6594.0271-.9882.0271-3.0574,0-6.0433-.7904-8.797-2.29-.9858,1.6714-1.8833,3.5306-2.6839,5.5907-5.4938,14.1376-6.4012,37.5285-2.4891,64.1753,2.902,19.7632,8.2833,39.1404,13.6414,49.6895.0474.0932.0946.1805.142.2723.0474-.0918.0946-.1791.142-.2723,5.3579-10.5492,10.7396-29.9259,13.641-49.6891,3.9121-26.6468,3.0052-50.0381-2.4887-64.1758Z"/>
    <path class="cls-1" d="M282.2974,147.1578c-2.5087,0-4.9331-.3622-7.2318-1.0241-3.7199,4.8057-7.3978,12.3275-8.4558,21.0563-.7337,6.0542,1.5238,12.8828,5.7512,17.3964,2.1767,2.3243,5.8137,5.0418,10.7948,4.7639,4.7242-.2606,8.0003-3.0752,9.9168-5.3902,3.7468-4.5262,5.6592-11.2623,4.8713-17.1615-1.1986-8.9747-4.8166-16.1128-8.4051-20.6675-2.3015.6636-4.7292,1.0267-7.2414,1.0267Z"/>
    <path class="cls-1" d="M261.8584,120.9799c0,11.2702,9.1687,20.4394,20.4389,20.4394s20.4394-9.1692,20.4394-20.4394c0-12.1417-10.5585-16.468-20.4394-16.468s-20.4389,4.3263-20.4389,16.468Z"/>
  </g>
</svg>